<?xml version="1.0" standalone="yes"?><svg xmlns="http://www.w3.org/2000/svg" xmlns:xlink="http://www.w3.org/1999/xlink" xmlns:lucid="lucid" width="1955.56" height="1511.11" style="zoom: 1;"><g lucid:page-tab-id="0_0"><path d="M1384.98 542.43v90h-12.5v-90z" fill="none"></path><g stroke="#666" fill="#999"><path d="M1633.73 457.82c2.76 0 5 2.24 5 5v166c0 2.75-2.24 5-5 5h-50c-2.76 0-5-2.25-5-5v-166c0-2.76 2.24-5 5-5z"></path><path d="M1576.23 462.22v79.2m-2.5-79.2v79.2m2.5 8.78v79.2m-2.5-79.2v79.2" stroke-width=".5"></path></g><g stroke="#666" fill="#999"><path d="M663.23 999.73c0 2.77-2.24 5-5 5h-40c-2.76 0-5-2.23-5-5v-50c0-2.76 2.24-5 5-5h40c2.76 0 5 2.24 5 5z"></path><path d="M658.23 942.23h-40m40-2.5h-40" stroke-width=".5"></path></g><path d="M1647.15 222.06l6.25-6.25 6.25-6.24h-280.92v6.25l6.25 6.26zm-274.67 0l6.25-6.25v-6.24H878.98v6.25l6.25 6.26zm-499.75 0l6.25-6.25v-6.24H538.6v12.5zm-514.12 0v-12.5h-55.46l6.26 6.25 6.26 6.26z" fill="#fff"></path><path d="M1647.15 222.06h-262.17m-6.25-12.5h280.92m-287.17 12.5H885.23m-6.25-12.5h499.75m-506 12.5H538.6v-12.5H879m-520.37 12.5h-42.94m-12.52-12.5h55.47v12.5" stroke="#666" fill="none"></path><use xlink:href="#a" transform="translate(961.522 197.964)"></use><path d="M315.66 222.06l-6.26-6.25-6.26-6.24.1 105.16h12.5zm.2 209.66h-12.5v4.2h12.5zm.1 121.2h-12.5l.1 105.15h6.26l6.25-6.26zm.12 111.4l-6.26-6.26h-6.25l.16 164.44 12.5-.02zm.32 335.83h-12.5l.02 19.25h6.25l6.24-6.25zm.02 25.5l-6.25-6.25h-6.25l.16 171.42h12.5zm.33 342.82l-12.5.02.02 21.8 6.25-6.24 6.24-6.25z" fill="#fff"></path><path d="M315.66 222.06l.08 92.65-12.5.02-.1-105.16m12.72 222.15v4.2h-12.5v-4.2h12.5zm.1 121.2l.1 98.9m-12.5 6.25l-.1-105.14h12.5m.12 111.38l.15 158.18-12.5.02-.16-164.43m12.83 342.08v13m-12.48 6.25l-.02-19.24h12.5m.02 25.5l.16 165.15-12.5.02-.16-171.42m12.83 349.07v9.34m-12.48 12.5l-.02-21.8 12.5-.03" stroke="#666" fill="none"></path><use xlink:href="#b" transform="rotate(89.945 -250.772 529.821)"></use><path d="M885.23 222.06l-6.25-6.25-6.25 6.26v314.58h12.5zm0 404.58h-12.5v38.1l6.25-6.26 6.25-6.25z" fill="#fff"></path><path d="M885.23 222.06v314.58h-12.5V222.06m12.5 404.58v25.6m-12.5 12.5v-38.1h12.5" stroke="#666" fill="none"></path><use xlink:href="#c" transform="rotate(90 240.217 660.614)"></use><path d="M669.65 664.3l6.25-6.24 6.25-6.25H445.4v12.5zm-314.24 0v-12.5h-39.33l-6.25 6.26 6.26 6.25z" fill="#fff"></path><path d="M669.65 664.3H445.4v-12.5h236.75M355.4 664.3h-39.3m0-12.5h39.33v12.5" stroke="#666" fill="none"></path><use xlink:href="#d" transform="translate(476.786 692.714)"></use><path d="M669.65 1386.98h12.5v-238.05h-12.5zm0-328.05h12.5v-39.53h-6.25l-6.25 6.25zm0-45.78l6.25 6.25h6.25V651.8l-6.25 6.26-6.25 6.25z" fill="#fff"></path><path d="M669.65 1386.98v-238.05h12.5v238.05h-12.5zm0-328.05v-33.28m12.5-6.25v39.53h-12.5m0-45.78V664.3m12.5-12.5v367.6m-12.5-6.25" stroke="#666" fill="none"></path><use xlink:href="#e" transform="rotate(90 -179.136 820.386)"></use><path d="M845.4 334.28v177.08h-23.6V334.28h23.6z" fill="#666"></path><path d="M853.22 329.9v90.83c0 .95-.63 1.7-1.44 1.7h-12.42c-.8 0-1.44-.75-1.44-1.7V329.9c0-.94.63-1.5 1.44-1.5h12.42c.8 0 1.44.56 1.44 1.5zm0 95v90.83c0 .95-.63 1.7-1.44 1.7h-12.42c-.8 0-1.44-.75-1.44-1.7V424.9c0-.94.63-1.7 1.44-1.7h12.42c.8 0 1.44.76 1.44 1.7zm-16.2-96.5h-41.3c-3.25 0-5.95 1.5-5.95 3.6v5.9c0 2.08 2.7 3.8 5.94 3.8h41.32v-13.3zm0 175.74h-41.3c-3.25 0-5.95 1.52-5.95 3.6v5.9c0 2.1 2.7 3.6 5.94 3.6h41.32v-13.3zm0-155.42v67.45c0 3.42-2.6 6.27-5.76 6.27h-61.38c-3.15 0-5.76-2.85-5.76-6.27v-67.45c0-3.42 2.6-6.27 5.76-6.27h61.38c3.15 0 5.76 2.85 5.76 6.27zm0 80.75v67.45c0 3.42-2.6 6.27-5.76 6.27h-61.38c-3.15 0-5.76-2.86-5.76-6.28v-67.45c0-3.42 2.6-6.27 5.76-6.27h61.38c3.15 0 5.76 2.85 5.76 6.27z" stroke="#666" fill="#bbb"></path><path d="M316.76 1377.8l-6.24 6.26-6.25 6.25h439.9v-12.5zm517.4 0v12.5H901v-6.24l-6.25-6.25zm73.1 0l-6.27 6.26v6.25h758.65l-6.25-6.24-6.25-6.25z" fill="#fff"></path><path d="M316.76 1377.8h427.4v12.5h-439.9m529.9-12.5h60.6m6.23 12.5h-66.84v-12.5m73.1 0h739.9m12.5 12.5H900.98m6.25-12.5" stroke="#666" fill="none"></path><use xlink:href="#f" transform="translate(962.086 1414.713)"></use><path d="M885.23 652.23l-6.25 6.25-6.25 6.25h506v-6.25l-6.25-6.25zm499.75 0l-6.25 6.25v6.25h268.42l6.25-6.25-6.25-6.25z" fill="#fff"></path><path d="M885.23 652.23h487.25m6.25 12.5h-506m512.25-12.5h262.17m0 12.5h-268.42m6.25-12.5" stroke="#666" fill="none"></path><use xlink:href="#g" transform="translate(1243.19 636.631)"></use><path d="M564.13 236.1H741.2v23.58H564.14V236.1z" fill="#666"></path><path d="M559.76 228.27h90.82c.95 0 1.7.63 1.7 1.44v12.43c0 .8-.75 1.44-1.7 1.44h-90.82c-.95 0-1.52-.63-1.52-1.44V229.7c0-.8.57-1.43 1.52-1.43zm95 0h90.82c.95 0 1.7.63 1.7 1.44v12.43c0 .8-.75 1.44-1.7 1.44h-90.82c-.95 0-1.7-.63-1.7-1.44V229.7c0-.8.75-1.43 1.7-1.43zm-96.52 16.2v41.3c0 3.25 1.52 5.95 3.6 5.95h5.9c2.1 0 3.8-2.7 3.8-5.94v-41.3h-13.3zm175.76 0v41.3c0 3.25 1.5 5.95 3.6 5.95h5.9c2.08 0 3.6-2.7 3.6-5.94v-41.3h-13.3zm-155.43 0h67.45c3.42 0 6.27 2.6 6.27 5.76v61.38c0 3.16-2.86 5.77-6.28 5.77h-67.45c-3.42 0-6.27-2.6-6.27-5.76v-61.37c0-3.15 2.85-5.76 6.27-5.76zm80.75 0h67.45c3.42 0 6.27 2.6 6.27 5.76v61.38c0 3.16-2.85 5.77-6.27 5.77h-67.45c-3.42 0-6.27-2.6-6.27-5.76v-61.37c0-3.15 2.85-5.76 6.27-5.76z" stroke="#666" fill="#bbb"></path><path d="M847.67 272.82c0 24.85-20.15 45-45 45s-45-20.15-45-45c0-24.86 20.15-45 45-45s45 20.14 45 45" stroke="#666" fill="#ddd"></path><g fill="none"><path d="M538.6 215.8v90m-90-90c0 49.72 40.3 90 90 90m-180-90v90m90-90c0 49.72-40.3 90-90 90" stroke="#666"></path><path d="M538.6 300.8c0 2.78-2.23 5-5 5h-170c-2.75 0-5-2.22-5-5v-80c0-2.75 2.25-5 5-5h170c2.77 0 5 2.25 5 5z"></path></g><g fill="none"><path d="M878.98 626.64h90m-90-90c49.7 0 90 40.3 90 90" stroke="#666"></path><path d="M883.98 626.64c-2.76 0-5-2.24-5-5v-80c0-2.76 2.24-5 5-5h80c2.76 0 5 2.24 5 5v80c0 2.76-2.24 5-5 5z"></path></g><g stroke="#666" fill="#bbb"><path d="M914.13 340.72c-2.75-18.05-2.75-18.05 0-36.05 16-2.6 16-2.6 33.45-2.6 1.6 20.6 1.6 20.6 0 41.25-17.45 0-17.45 0-33.45-2.6z"></path><path d="M902.48 323.32v-1.25c0-.7.5-1.2 1.15-1.2h8.85c.65 0 1.15.5 1.15 1.2v1.25c0 .65-.5 1.2-1.15 1.2h-8.85c-.65 0-1.15-.55-1.15-1.2zm1.6 16.25l-.1-1.3c-.05-.65.4-1.25 1.05-1.3l8.8-.8c.6-.05 1.15.45 1.2 1.1l.15 1.3c.05.65-.4 1.2-1.05 1.25l-8.8.8c-.65.05-1.2-.4-1.25-1.05zm-1.05-8.15l-.05-1.25c-.05-.65.45-1.2 1.1-1.25l8.8-.4c.65-.05 1.2.5 1.2 1.15l.1 1.3c0 .65-.5 1.2-1.15 1.2l-8.8.4c-.65.05-1.2-.45-1.2-1.15zm-.05-16.2l.05-1.3c0-.65.55-1.15 1.2-1.1l8.8.4c.65 0 1.15.55 1.15 1.2l-.1 1.3c0 .65-.55 1.15-1.2 1.15l-8.8-.4c-.65-.05-1.15-.6-1.1-1.25zm1-8.1l.1-1.3c.05-.65.6-1.1 1.25-1.05l8.8.75c.65.1 1.1.65 1.05 1.3l-.15 1.3c-.05.65-.6 1.15-1.2 1.1l-8.8-.8c-.65-.05-1.1-.65-1.05-1.3z"></path><path d="M900.93 346.92c-2.6-24.25-2.6-24.25 0-48.45 1.45-1.75 4.7.35 6.1 2.05-2.85 24.25-2.85 20.1 0 44.35-1.4 1.7-4.65 3.75-6.1 2.05z"></path></g><g stroke="#666" fill="#bbb"><path d="M1073.33 304.92c2.75 18.05 2.75 18.05 0 36.05-16 2.6-16 2.6-33.45 2.6-1.6-20.6-1.6-20.6 0-41.25 17.45 0 17.45 0 33.45 2.6z"></path><path d="M1084.98 322.32v1.25c0 .7-.5 1.2-1.15 1.2h-8.85c-.65 0-1.15-.5-1.15-1.2v-1.25c0-.65.5-1.2 1.15-1.2h8.85c.65 0 1.15.55 1.15 1.2zm-1.6-16.25l.1 1.3c.05.65-.4 1.25-1.05 1.3l-8.8.8c-.6.05-1.15-.45-1.2-1.1l-.15-1.3c-.05-.65.4-1.2 1.05-1.25l8.8-.8c.65-.05 1.2.4 1.25 1.05zm1.05 8.15l.05 1.25c.05.65-.45 1.2-1.1 1.25l-8.8.4c-.65.05-1.2-.5-1.2-1.15l-.1-1.3c0-.65.5-1.2 1.15-1.2l8.8-.4c.65-.05 1.2.45 1.2 1.15zm.05 16.2l-.05 1.3c0 .65-.55 1.15-1.2 1.1l-8.8-.4c-.65 0-1.15-.55-1.15-1.2l.1-1.3c0-.65.55-1.15 1.2-1.15l8.8.4c.65.05 1.15.6 1.1 1.25zm-1 8.1l-.1 1.3c-.05.65-.6 1.1-1.25 1.05l-8.8-.75c-.65-.1-1.1-.65-1.05-1.3l.15-1.3c.05-.65.6-1.15 1.2-1.1l8.8.8c.65.05 1.1.65 1.05 1.3z"></path><path d="M1086.53 298.72c2.6 24.25 2.6 24.25 0 48.45-1.45 1.75-4.7-.35-6.1-2.05 2.85-24.25 2.85-20.1 0-44.35 1.4-1.7 4.65-3.75 6.1-2.05z"></path></g><path d="M975.83 243.22c18.05-2.75 18.05-2.75 36.05 0 2.6 16 2.6 16 2.6 33.45-20.6 1.6-20.6 1.6-41.25 0 0-17.45 0-17.45 2.6-33.45z" stroke="#666" fill="#bbb"></path><path d="M993.23 231.57h1.25c.7 0 1.2.5 1.2 1.15v8.85c0 .65-.5 1.15-1.2 1.15h-1.25c-.65 0-1.2-.5-1.2-1.15v-8.85c0-.65.55-1.15 1.2-1.15zm-16.25 1.6l1.3-.1c.65-.05 1.25.4 1.3 1.05l.8 8.8c.05.6-.45 1.15-1.1 1.2l-1.3.15c-.65.05-1.2-.4-1.25-1.05l-.8-8.8c-.05-.65.4-1.2 1.05-1.25zm8.15-1.05l1.25-.05c.65-.05 1.2.45 1.25 1.1l.4 8.8c.05.65-.5 1.2-1.15 1.2l-1.3.1c-.65 0-1.2-.5-1.2-1.15l-.4-8.8c-.05-.65.45-1.2 1.15-1.2zm16.2-.05l1.3.05c.65 0 1.15.55 1.1 1.2l-.4 8.8c0 .65-.55 1.15-1.2 1.15l-1.3-.1c-.65 0-1.15-.55-1.15-1.2l.4-8.8c.05-.65.6-1.15 1.25-1.1zm8.1 1l1.3.1c.65.05 1.1.6 1.05 1.25l-.75 8.8c-.1.65-.65 1.1-1.3 1.05l-1.3-.15c-.65-.05-1.15-.6-1.1-1.2l.8-8.8c.05-.65.65-1.1 1.3-1.05z" stroke="#666" fill="#bbb"></path><path d="M969.63 230.02c24.25-2.6 24.25-2.6 48.45 0 1.75 1.45-.35 4.7-2.05 6.1-24.25-2.85-20.1-2.85-44.35 0-1.7-1.4-3.75-4.65-2.05-6.1z" stroke="#666" fill="#bbb"></path><g stroke="#666" fill="#bbb"><path d="M1011.63 402.42c-18.05 2.75-18.05 2.75-36.05 0-2.6-16-2.6-16-2.6-33.45 20.6-1.6 20.6-1.6 41.25 0 0 17.45 0 17.45-2.6 33.45z"></path><path d="M994.23 414.07h-1.25c-.7 0-1.2-.5-1.2-1.15v-8.85c0-.65.5-1.15 1.2-1.15h1.25c.65 0 1.2.5 1.2 1.15v8.85c0 .65-.55 1.15-1.2 1.15zm16.25-1.6l-1.3.1c-.65.05-1.25-.4-1.3-1.05l-.8-8.8c-.05-.6.45-1.15 1.1-1.2l1.3-.15c.65-.05 1.2.4 1.25 1.05l.8 8.8c.05.65-.4 1.2-1.05 1.25zm-8.15 1.05l-1.25.05c-.65.05-1.2-.45-1.25-1.1l-.4-8.8c-.05-.65.5-1.2 1.15-1.2l1.3-.1c.65 0 1.2.5 1.2 1.15l.4 8.8c.05.65-.45 1.2-1.15 1.2zm-16.2.05l-1.3-.05c-.65 0-1.15-.55-1.1-1.2l.4-8.8c0-.65.55-1.15 1.2-1.15l1.3.1c.65 0 1.15.55 1.15 1.2l-.4 8.8c-.05.65-.6 1.15-1.25 1.1zm-8.1-1l-1.3-.1c-.65-.05-1.1-.6-1.05-1.25l.75-8.8c.1-.65.65-1.1 1.3-1.05l1.3.15c.65.05 1.15.6 1.1 1.2l-.8 8.8c-.05.65-.65 1.1-1.3 1.05z"></path><path d="M1017.83 415.62c-24.25 2.6-24.25 2.6-48.45 0-1.75-1.45.35-4.7 2.05-6.1 24.25 2.85 20.1 2.85 44.35 0 1.7 1.4 3.75 4.65 2.05 6.1z"></path></g><path d="M918.73 252.82c0-2.76 2.24-5 5-5h140c2.76 0 5 2.24 5 5v140c0 2.76-2.24 5-5 5h-140c-2.76 0-5-2.24-5-5z" stroke="#666" fill="#ddd"></path><g stroke="#666" fill="#bbb"><path d="M1154.13 340.72c-2.75-18.05-2.75-18.05 0-36.05 16-2.6 16-2.6 33.45-2.6 1.6 20.6 1.6 20.6 0 41.25-17.45 0-17.45 0-33.45-2.6z"></path><path d="M1142.48 323.32v-1.25c0-.7.5-1.2 1.15-1.2h8.85c.65 0 1.15.5 1.15 1.2v1.25c0 .65-.5 1.2-1.15 1.2h-8.85c-.65 0-1.15-.55-1.15-1.2zm1.6 16.25l-.1-1.3c-.05-.65.4-1.25 1.05-1.3l8.8-.8c.6-.05 1.15.45 1.2 1.1l.15 1.3c.05.65-.4 1.2-1.05 1.25l-8.8.8c-.65.05-1.2-.4-1.25-1.05zm-1.05-8.15l-.05-1.25c-.05-.65.45-1.2 1.1-1.25l8.8-.4c.65-.05 1.2.5 1.2 1.15l.1 1.3c0 .65-.5 1.2-1.15 1.2l-8.8.4c-.65.05-1.2-.45-1.2-1.15zm-.05-16.2l.05-1.3c0-.65.55-1.15 1.2-1.1l8.8.4c.65 0 1.15.55 1.15 1.2l-.1 1.3c0 .65-.55 1.15-1.2 1.15l-8.8-.4c-.65-.05-1.15-.6-1.1-1.25zm1-8.1l.1-1.3c.05-.65.6-1.1 1.25-1.05l8.8.75c.65.1 1.1.65 1.05 1.3l-.15 1.3c-.05.65-.6 1.15-1.2 1.1l-8.8-.8c-.65-.05-1.1-.65-1.05-1.3z"></path><path d="M1140.93 346.92c-2.6-24.25-2.6-24.25 0-48.45 1.45-1.75 4.7.35 6.1 2.05-2.85 24.25-2.85 20.1 0 44.35-1.4 1.7-4.65 3.75-6.1 2.05z"></path></g><path d="M1215.83 243.22c18.05-2.75 18.05-2.75 36.05 0 2.6 16 2.6 16 2.6 33.45-20.6 1.6-20.6 1.6-41.25 0 0-17.45 0-17.45 2.6-33.45z" stroke="#666" fill="#bbb"></path><path d="M1233.23 231.57h1.25c.7 0 1.2.5 1.2 1.15v8.85c0 .65-.5 1.15-1.2 1.15h-1.25c-.65 0-1.2-.5-1.2-1.15v-8.85c0-.65.55-1.15 1.2-1.15zm-16.25 1.6l1.3-.1c.65-.05 1.25.4 1.3 1.05l.8 8.8c.05.6-.45 1.15-1.1 1.2l-1.3.15c-.65.05-1.2-.4-1.25-1.05l-.8-8.8c-.05-.65.4-1.2 1.05-1.25zm8.15-1.05l1.25-.05c.65-.05 1.2.45 1.25 1.1l.4 8.8c.05.65-.5 1.2-1.15 1.2l-1.3.1c-.65 0-1.2-.5-1.2-1.15l-.4-8.8c-.05-.65.45-1.2 1.15-1.2zm16.2-.05l1.3.05c.65 0 1.15.55 1.1 1.2l-.4 8.8c0 .65-.55 1.15-1.2 1.15l-1.3-.1c-.65 0-1.15-.55-1.15-1.2l.4-8.8c.05-.65.6-1.15 1.25-1.1zm8.1 1l1.3.1c.65.05 1.1.6 1.05 1.25l-.75 8.8c-.1.65-.65 1.1-1.3 1.05l-1.3-.15c-.65-.05-1.15-.6-1.1-1.2l.8-8.8c.05-.65.65-1.1 1.3-1.05z" stroke="#666" fill="#bbb"></path><path d="M1209.63 230.02c24.25-2.6 24.25-2.6 48.45 0 1.75 1.45-.35 4.7-2.05 6.1-24.25-2.85-20.1-2.85-44.35 0-1.7-1.4-3.75-4.65-2.05-6.1z" stroke="#666" fill="#bbb"></path><g stroke="#666" fill="#bbb"><path d="M1251.63 402.42c-18.05 2.75-18.05 2.75-36.05 0-2.6-16-2.6-16-2.6-33.45 20.6-1.6 20.6-1.6 41.25 0 0 17.45 0 17.45-2.6 33.45z"></path><path d="M1234.23 414.07h-1.25c-.7 0-1.2-.5-1.2-1.15v-8.85c0-.65.5-1.15 1.2-1.15h1.25c.65 0 1.2.5 1.2 1.15v8.85c0 .65-.55 1.15-1.2 1.15zm16.25-1.6l-1.3.1c-.65.05-1.25-.4-1.3-1.05l-.8-8.8c-.05-.6.45-1.15 1.1-1.2l1.3-.15c.65-.05 1.2.4 1.25 1.05l.8 8.8c.05.65-.4 1.2-1.05 1.25zm-8.15 1.05l-1.25.05c-.65.05-1.2-.45-1.25-1.1l-.4-8.8c-.05-.65.5-1.2 1.15-1.2l1.3-.1c.65 0 1.2.5 1.2 1.15l.4 8.8c.05.65-.45 1.2-1.15 1.2zm-16.2.05l-1.3-.05c-.65 0-1.15-.55-1.1-1.2l.4-8.8c0-.65.55-1.15 1.2-1.15l1.3.1c.65 0 1.15.55 1.15 1.2l-.4 8.8c-.05.65-.6 1.15-1.25 1.1zm-8.1-1l-1.3-.1c-.65-.05-1.1-.6-1.05-1.25l.75-8.8c.1-.65.65-1.1 1.3-1.05l1.3.15c.65.05 1.15.6 1.1 1.2l-.8 8.8c-.05.65-.65 1.1-1.3 1.05z"></path><path d="M1257.83 415.62c-24.25 2.6-24.25 2.6-48.45 0-1.75-1.45.35-4.7 2.05-6.1 24.25 2.85 20.1 2.85 44.35 0 1.7 1.4 3.75 4.65 2.05 6.1z"></path></g><g stroke="#666" fill="#bbb"><path d="M1313.33 304.92c2.75 18.05 2.75 18.05 0 36.05-16 2.6-16 2.6-33.45 2.6-1.6-20.6-1.6-20.6 0-41.25 17.45 0 17.45 0 33.45 2.6z"></path><path d="M1324.98 322.32v1.25c0 .7-.5 1.2-1.15 1.2h-8.85c-.65 0-1.15-.5-1.15-1.2v-1.25c0-.65.5-1.2 1.15-1.2h8.85c.65 0 1.15.55 1.15 1.2zm-1.6-16.25l.1 1.3c.05.65-.4 1.25-1.05 1.3l-8.8.8c-.6.05-1.15-.45-1.2-1.1l-.15-1.3c-.05-.65.4-1.2 1.05-1.25l8.8-.8c.65-.05 1.2.4 1.25 1.05zm1.05 8.15l.05 1.25c.05.65-.45 1.2-1.1 1.25l-8.8.4c-.65.05-1.2-.5-1.2-1.15l-.1-1.3c0-.65.5-1.2 1.15-1.2l8.8-.4c.65-.05 1.2.45 1.2 1.15zm.05 16.2l-.05 1.3c0 .65-.55 1.15-1.2 1.1l-8.8-.4c-.65 0-1.15-.55-1.15-1.2l.1-1.3c0-.65.55-1.15 1.2-1.15l8.8.4c.65.05 1.15.6 1.1 1.25zm-1 8.1l-.1 1.3c-.05.65-.6 1.1-1.25 1.05l-8.8-.75c-.65-.1-1.1-.65-1.05-1.3l.15-1.3c.05-.65.6-1.15 1.2-1.1l8.8.8c.65.05 1.1.65 1.05 1.3z"></path><path d="M1326.53 298.72c2.6 24.25 2.6 24.25 0 48.45-1.45 1.75-4.7-.35-6.1-2.05 2.85-24.25 2.85-20.1 0-44.35 1.4-1.7 4.65-3.75 6.1-2.05z"></path></g><path d="M1158.73 252.82c0-2.76 2.24-5 5-5h140c2.76 0 5 2.24 5 5v140c0 2.76-2.24 5-5 5h-140c-2.76 0-5-2.24-5-5z" stroke="#666" fill="#ddd"></path><path d="M1384.98 222.06l-6.25-6.25-6.25 6.26v320.37h12.5zm0 410.37h-12.5v19.8l6.25 6.25 6.25-6.25z" fill="#fff"></path><path d="M1384.98 222.06v320.37h-12.5V222.06m12.5 410.37v19.8m-12.5 0v-19.8h12.5" stroke="#666" fill="none"></path><use xlink:href="#c" transform="rotate(90 491.654 908.933)"></use><path d="M669.65 1025.65l6.25-6.25-6.25-6.25H316.4l-6.23 6.25 6.25 6.25z" fill="#fff"></path><path d="M669.65 1025.65H316.42m0-12.5h353.23m0 12.5" stroke="#666" fill="none"></path><use xlink:href="#h" transform="translate(474.334 1057.604)"></use><g fill="none"><path d="M355.4 658.06v90m90-90c0 49.7-40.3 90-90 90" stroke="#666"></path><path d="M355.4 663.06c0-2.76 2.25-5 5-5h80c2.77 0 5 2.24 5 5v80c0 2.77-2.23 5-5 5h-80c-2.75 0-5-2.23-5-5z"></path></g><g stroke="#666"><path d="M389.28 864.52l-4.03 1.13-2.47-9.76c-.75-2.73 3.35-3.86 4.06-1.17l2.44 9.8zm-16.33 16.33l1.13-4.03-9.76-2.47c-2.72-.75-3.85 3.36-1.17 4.06l9.8 2.45z" fill="#666"></path><path d="M372.66 896.9c8.7 8.7 23.1 8.45 32.1-.56 9.02-9.02 9.27-23.4.57-32.1-8.7-8.7-23.1-8.45-32.1.56-9.02 9.02-9.26 23.4-.57 32.1z" fill="#ccc"></path><path d="M422.37 881.28c-13.43 19.23-13.4 19.27-32.67 32.67-5.83-.46-7.42-5.94-6.18-9.52.53-1.44 8.8-5.2 16.47-12.86 7.7-7.64 11.45-16 12.9-16.52 3.53-1.27 9.05.36 9.47 6.23z" fill="#666"></path><path d="M421.6 880.5c-13.44 19.23-13.4 19.27-32.67 32.67-5.84-.46-7.43-5.94-6.2-9.5.54-1.46 8.8-5.2 16.5-12.88 7.66-7.68 11.44-16 12.9-16.52 3.53-1.28 9.04.35 9.47 6.22z" fill="#ccc"></path><path d="M414 870.7l-3.54 3.54-14.43-14.42c1.42-3.47 1.42-3.47 3.54-3.54L414 870.7zm-31.33 31.33l-3.54 3.54-14.42-14.43c.08-2.12.08-2.12 3.54-3.53l14.43 14.43z" fill="#666"></path></g><path d="M325.23 821.73c0-2.76 2.24-5 5-5h170.1c2.77 0 5 2.24 5 5v50c0 2.77-2.23 5-5 5h-70.1c-2.76 0-6.58-1.58-8.53-3.53l-2.93-2.93c-1.95-1.95-5.78-3.54-8.54-3.54-2.76 0-6.58 1.6-8.53 3.54l-22.93 22.93c-1.95 1.95-3.54 5.77-3.54 8.53 0 2.77 1.6 6.6 3.54 8.54l2.93 2.93c1.95 1.95 3.53 5.77 3.53 8.53v71.34c0 2.76-2.24 5-5 5h-50c-2.76 0-5-2.24-5-5z" stroke="#666" fill="#eee"></path><path d="M325.23 996.73v-175c0-2.76 2.24-5 5-5h170c2.76 0 5 2.24 5 5v85" stroke="#666" stroke-width="5" fill="none"></path><g stroke="#666"><path d="M349.8 854.7l14.5-14.52c1.18-1.18 3.1-1.2 4.28-.04l3.54 3.54c1.2 1.2 1.17 3.12-.02 4.3l-14.5 14.52c-1.2 1.2-3.08 1.17-4.27-.02l-3.54-3.54a2.976 2.976 0 0 1 0-4.25z" fill="#ddd"></path><path d="M348.2 867.6l29-29 5.04-.75-34.8 34.8.75-5.04zm5.4-8.24L368.96 844l1.36 1.36-15.36 15.36-1.36-1.36zm4.7-10.66c-.56.54-.56 1.48 0 2.05.23.2.46.36.76.4l1.3 1.32 1.75-1.74-1.3-1.32c-.1-.24-.2-.52-.4-.73-.58-.57-1.5-.57-2.1.02zM347 880.85l34.8-34.8 9.48 9.5-34.8 34.78-9.47-9.48z" fill="#ddd"></path><path d="M349.85 880.8l25.37-25.36 6.56 6.55-25.38 25.36-6.55-6.55zm26.81-26.8l5.1-5.1 6.55 6.56-5.08 5.1-6.56-6.57z" fill="#6f6f6f"></path><path d="M389.8 842.88c-.54.55-.52 1.33 0 1.84l2.58 2.6.13.12.16.15c.78.77 2.08.8 2.88 0 .8-.82.8-2.1 0-2.9l-.15-.15-.13-.12-2.6-2.6c-.5-.5-1.33-.48-1.84.03l-1.02 1.02zm.52-.51l1.96 1.95" fill="#ddd"></path></g><g stroke="#666" fill="#999"><path d="M613.23 999.73c0 2.77-2.24 5-5 5h-40c-2.76 0-5-2.23-5-5v-50c0-2.76 2.24-5 5-5h40c2.76 0 5 2.24 5 5z"></path><path d="M608.23 942.23h-40m40-2.5h-40" stroke-width=".5"></path></g><path d="M491.35 663.17H659.1v18.34H491.36v-18.33z" fill="#666"></path><path d="M487.2 657.08h86.05c.9 0 1.62.5 1.62 1.12v9.66c0 .63-.72 1.12-1.62 1.12H487.2c-.9 0-1.43-.5-1.43-1.12v-9.66c0-.63.54-1.12 1.44-1.12zm90 0h86.05c.9 0 1.62.5 1.62 1.12v9.66c0 .63-.72 1.12-1.62 1.12H577.2c-.9 0-1.6-.5-1.6-1.12v-9.66c0-.63.7-1.12 1.6-1.12zm-91.43 12.6v32.13c0 2.53 1.44 4.63 3.42 4.63h5.57c1.98 0 3.6-2.1 3.6-4.62V669.7h-12.6zm166.5 0v32.13c0 2.53 1.44 4.63 3.42 4.63h5.57c1.98 0 3.42-2.1 3.42-4.62V669.7h-12.6zm-147.24 0h63.9c3.24 0 5.94 2.03 5.94 4.48v47.74c0 2.45-2.7 4.48-5.94 4.48h-63.9c-3.24 0-5.94-2.03-5.94-4.48v-47.74c0-2.45 2.7-4.48 5.93-4.48zm76.5 0h63.9c3.24 0 5.94 2.03 5.94 4.48v47.74c0 2.45-2.7 4.48-5.94 4.48h-63.9c-3.24 0-5.94-2.03-5.94-4.48v-47.74c0-2.45 2.7-4.48 5.93-4.48z" stroke="#666" fill="#bbb"></path><g stroke="#666" fill="#999"><path d="M663.23 1359.73c0 2.77-2.24 5-5 5h-40c-2.76 0-5-2.23-5-5v-50c0-2.76 2.24-5 5-5h40c2.76 0 5 2.24 5 5z"></path><path d="M658.23 1302.23h-40m40-2.5h-40" stroke-width=".5"></path></g><g stroke="#666"><path d="M389.28 1224.52l-4.03 1.13-2.47-9.76c-.75-2.73 3.35-3.86 4.06-1.17l2.44 9.8zm-16.33 16.33l1.13-4.03-9.76-2.47c-2.72-.75-3.85 3.36-1.17 4.06l9.8 2.45z" fill="#666"></path><path d="M372.66 1256.9c8.7 8.7 23.1 8.45 32.1-.56 9.02-9.02 9.27-23.4.57-32.1-8.7-8.7-23.1-8.45-32.1.56-9.02 9.02-9.26 23.4-.57 32.1z" fill="#ccc"></path><path d="M422.37 1241.28c-13.43 19.23-13.4 19.27-32.67 32.67-5.83-.46-7.42-5.94-6.18-9.52.53-1.44 8.8-5.2 16.47-12.86 7.7-7.64 11.45-16 12.9-16.52 3.53-1.27 9.05.36 9.47 6.23z" fill="#666"></path><path d="M421.6 1240.5c-13.44 19.23-13.4 19.27-32.67 32.67-5.84-.46-7.43-5.94-6.2-9.5.54-1.46 8.8-5.2 16.5-12.88 7.66-7.68 11.44-16 12.9-16.52 3.53-1.28 9.04.35 9.47 6.22z" fill="#ccc"></path><path d="M414 1230.7l-3.54 3.54-14.43-14.42c1.42-3.47 1.42-3.47 3.54-3.54L414 1230.7zm-31.33 31.33l-3.54 3.54-14.42-14.43c.08-2.12.08-2.12 3.54-3.53l14.43 14.43z" fill="#666"></path></g><path d="M325.23 1181.73c0-2.76 2.24-5 5-5h170.1c2.77 0 5 2.24 5 5v50c0 2.77-2.23 5-5 5h-70.1c-2.76 0-6.58-1.58-8.53-3.53l-2.93-2.93c-1.95-1.95-5.78-3.54-8.54-3.54-2.76 0-6.58 1.6-8.53 3.54l-22.93 22.93c-1.95 1.95-3.54 5.77-3.54 8.53 0 2.77 1.6 6.6 3.54 8.54l2.93 2.93c1.95 1.95 3.53 5.77 3.53 8.53v71.34c0 2.76-2.24 5-5 5h-50c-2.76 0-5-2.24-5-5z" stroke="#666" fill="#eee"></path><path d="M325.23 1356.73v-175c0-2.76 2.24-5 5-5h170c2.76 0 5 2.24 5 5v85" stroke="#666" stroke-width="5" fill="none"></path><g stroke="#666"><path d="M349.8 1214.7l14.5-14.52c1.18-1.18 3.1-1.2 4.28-.04l3.54 3.54c1.2 1.2 1.17 3.12-.02 4.3l-14.5 14.52c-1.2 1.2-3.08 1.17-4.27-.02l-3.54-3.54a2.976 2.976 0 0 1 0-4.25z" fill="#ddd"></path><path d="M348.2 1227.6l29-29 5.04-.75-34.8 34.8.75-5.04zm5.4-8.24l15.36-15.36 1.36 1.36-15.36 15.36-1.36-1.36zm4.7-10.66c-.56.54-.56 1.48 0 2.05.23.2.46.36.76.4l1.3 1.32 1.75-1.74-1.3-1.32c-.1-.24-.2-.52-.4-.73-.58-.57-1.5-.57-2.1.02zm-11.3 32.15l34.8-34.8 9.48 9.5-34.8 34.78-9.47-9.48z" fill="#ddd"></path><path d="M349.85 1240.8l25.37-25.36 6.56 6.55-25.38 25.36-6.55-6.55zm26.81-26.8l5.1-5.1 6.55 6.56-5.08 5.1-6.56-6.57z" fill="#6f6f6f"></path><path d="M389.8 1202.88c-.54.55-.52 1.33 0 1.84l2.58 2.6.13.12.16.15c.78.77 2.08.8 2.88 0 .8-.82.8-2.1 0-2.9l-.15-.15-.13-.12-2.6-2.6c-.5-.5-1.33-.48-1.84.03l-1.02 1.02zm.52-.51l1.96 1.95" fill="#ddd"></path></g><g stroke="#666" fill="#999"><path d="M613.23 1359.73c0 2.77-2.24 5-5 5h-40c-2.76 0-5-2.23-5-5v-50c0-2.76 2.24-5 5-5h40c2.76 0 5 2.24 5 5z"></path><path d="M608.23 1302.23h-40m40-2.5h-40" stroke-width=".5"></path></g><path d="M331.35 1023.17H499.1v18.34H331.36v-18.33z" fill="#666"></path><path d="M327.2 1017.08h86.05c.9 0 1.62.5 1.62 1.12v9.66c0 .63-.72 1.12-1.62 1.12H327.2c-.9 0-1.43-.5-1.43-1.12v-9.66c0-.63.54-1.12 1.44-1.12zm90 0h86.05c.9 0 1.62.5 1.62 1.12v9.66c0 .63-.72 1.12-1.62 1.12H417.2c-.9 0-1.6-.5-1.6-1.12v-9.66c0-.63.7-1.12 1.6-1.12zm-91.43 12.6v32.13c0 2.53 1.44 4.63 3.42 4.63h5.57c1.98 0 3.6-2.1 3.6-4.62v-32.12h-12.6zm166.5 0v32.13c0 2.53 1.44 4.63 3.42 4.63h5.57c1.98 0 3.42-2.1 3.42-4.62v-32.12h-12.6zm-147.24 0h63.9c3.24 0 5.94 2.03 5.94 4.48v47.74c0 2.45-2.7 4.48-5.94 4.48h-63.9c-3.24 0-5.94-2.03-5.94-4.48v-47.74c0-2.45 2.7-4.48 5.93-4.48zm76.5 0h63.9c3.24 0 5.94 2.03 5.94 4.48v47.74c0 2.45-2.7 4.48-5.94 4.48h-63.9c-3.24 0-5.94-2.03-5.94-4.48v-47.74c0-2.45 2.7-4.48 5.93-4.48z" stroke="#666" fill="#bbb"></path><g fill="none"><path d="M675.9 1058.93h-90m90 90c-49.7 0-90-40.3-90-90" stroke="#666"></path><path d="M670.9 1058.93c2.76 0 5 2.24 5 5v80c0 2.76-2.24 5-5 5h-80c-2.76 0-5-2.24-5-5v-80c0-2.76 2.24-5 5-5z"></path></g><g stroke="#666"><path d="M317.83 1190.8l.17 177.67-15 .02-.17-177.68z" fill="#fff"></path><path d="M312.83 1190.8l-5 .02.17 177.66h5z" fill="#666"></path></g><g stroke="#666"><path d="M317.48 822.48l.17 177.67h-15l-.17-177.65z" fill="#fff"></path><path d="M312.48 822.5h-5l.17 177.66h5z" fill="#666"></path></g><path d="M1631.74 337.82c2.76 0 5 2.24 5 5v110c0 2.76-2.24 5-5 5h-48c-2.77 0-5-2.24-5-5v-110c0-2.76 2.23-5 5-5z" stroke="#666" fill="#fff"></path><path d="M1604.26 389.66c-11.37 0-20.54-9.78-20.54-21.84s9.17-21.84 20.54-21.84c11.3 0 20.47 9.78 20.47 21.84s-9.16 21.84-20.47 21.84z" stroke="#666" fill="#fff"></path><path d="M1630 367.82c0 1.32-1.27 2.4-2.83 2.4h-12.07c-1.56 0-2.84-1.08-2.84-2.4 0-1.32 1.28-2.4 2.84-2.4h12.07c1.56 0 2.84 1.08 2.84 2.4zm-5.38-7.08l.98-2.64-.98-2.64 3.2.78 3.18-.78-.93 2.64.93 2.64-3.2-.78-3.18.78zm0 19.44l.98-2.64-.98-2.64 3.2.78 3.18-.78-.93 2.64.93 2.64-3.2-.78-3.18.78z" stroke="#666" fill="#fff"></path><path d="M1604.26 370.1c-1.5 0-2.73-1.02-2.73-2.28 0-1.26 1.22-2.28 2.73-2.28 1.5 0 2.72 1.02 2.72 2.28 0 1.26-1.22 2.28-2.72 2.28z" fill="#666"></path><path d="M1604.26 449.66c-11.37 0-20.54-9.78-20.54-21.84s9.17-21.84 20.54-21.84c11.3 0 20.47 9.78 20.47 21.84s-9.16 21.84-20.47 21.84z" stroke="#666" fill="#fff"></path><path d="M1630 427.82c0 1.32-1.27 2.4-2.83 2.4h-12.07c-1.56 0-2.84-1.08-2.84-2.4 0-1.32 1.28-2.4 2.84-2.4h12.07c1.56 0 2.84 1.08 2.84 2.4zm-5.38-7.08l.98-2.64-.98-2.64 3.2.78 3.18-.78-.93 2.64.93 2.64-3.2-.78-3.18.78zm0 19.44l.98-2.64-.98-2.64 3.2.78 3.18-.78-.93 2.64.93 2.64-3.2-.78-3.18.78z" stroke="#666" fill="#fff"></path><path d="M1604.26 430.1c-1.5 0-2.73-1.02-2.73-2.28 0-1.26 1.22-2.28 2.73-2.28 1.5 0 2.72 1.02 2.72 2.28 0 1.26-1.22 2.28-2.72 2.28z" fill="#666"></path><g stroke="#666"><path d="M1582.34 258.1v69.44h-7V258.1h7z" fill="#fff"></path><path d="M1575.83 327.54s-6.3-.14-6.5-1.33c-.3-1.53-.15-5.87-.15-5.87" fill="none"></path><path d="M1638.62 258.1v69.44h-56.28V258.1h56.28z" fill="#fff"></path></g><g stroke="#666"><path d="M570.4 541.55l-3.65-2.05 5.15-8.65c1.4-2.45 5.1-.35 3.7 2.05l-5.2 8.65zm-23.1 0l3.65-2.05-5.15-8.65c-1.4-2.45-5.1-.35-3.7 2.05l5.2 8.65z" fill="#666"></path><path d="M535.75 552.7c0 12.3 10.35 22.3 23.1 22.3 12.75 0 23.1-10 23.1-22.3s-10.35-22.3-23.1-22.3c-12.75 0-23.1 10-23.1 22.3z" fill="#ccc"></path><path d="M581.95 576.8c-23.1 4.1-23.1 4.15-46.2 0-3.8-4.45-1.05-9.45 2.35-11.1 1.4-.65 9.9 2.55 20.75 2.55 10.85.05 19.4-3.2 20.8-2.55 3.4 1.6 6.15 6.65 2.3 11.1z" fill="#666"></path><path d="M581.95 575.7c-23.1 4.1-23.1 4.15-46.2 0-3.8-4.45-1.05-9.45 2.35-11.1 1.4-.65 9.9 2.55 20.75 2.55s19.4-3.2 20.8-2.55c3.4 1.6 6.15 6.65 2.3 11.1z" fill="#ccc"></path><path d="M583.5 563.4h-5V543c3.45-1.45 3.45-1.45 5 0v20.4zm-44.3 0h-5V543c1.55-1.45 1.55-1.45 5 0v20.4z" fill="#666"></path></g><path d="M583.9 504.9c0-2.76 2.24-5 5-5h20c2.76 0 5 2.24 5 5v50c0 2.76-2.24 5-5 5h-20c-2.76 0-5-2.24-5-5z" stroke="#666" fill="#999"></path><path d="M586.9 562.4h24m-24 2.5h24" stroke="#666" stroke-width=".5" fill="#999"></path><path d="M479.9 504.9c0-2.76 2.24-5 5-5h160c2.76 0 5 2.24 5 5v50c0 2.76-2.24 5-5 5h-160c-2.76 0-5-2.24-5-5z" stroke="#666" fill="#eee"></path><path d="M554.42 519.96h20.52c1.68 0 3.06 1.35 3.06 3v5c0 1.7-1.38 3.04-3.06 3.04h-20.52c-1.68 0-3-1.35-3-3.03v-5c0-1.66 1.32-3 3-3z" stroke="#666" fill="#ddd"></path><path d="M544.16 527.97h41.04l4.08 3.03h-49.2l4.08-3.03zm9.66-2.01h21.72v1.92h-21.72v-1.92zm10.86-4.23c-.78 0-1.44.66-1.44 1.47 0 .3.06.57.24.8v1.87h2.46V524c.12-.23.24-.5.24-.8 0-.8-.66-1.47-1.5-1.47zm-30.72 14.77h49.2v13.4h-49.2v-13.4z" stroke="#666" fill="#ddd"></path><path d="M536 538.47h35.88v9.27H536v-9.27zm37.92 0h7.2v9.27h-7.2v-9.27z" stroke="#666" fill="#6f6f6f"></path><path d="M591.08 539.9c-.78 0-1.32.58-1.32 1.3v4.04c0 1.12.9 2.05 2.04 2.05 1.14 0 2.04-.94 2.04-2.05v-4.05c0-.72-.6-1.3-1.32-1.3h-1.44zm.72 0v2.77" stroke="#666" fill="#ddd"></path><g stroke="#666"><path d="M317 314.7l.1 117.02h-15l-.1-117z" fill="#fff"></path><path d="M312 314.7l-5 .02.1 117h5z" fill="#666"></path></g><g stroke="#666"><path d="M317.1 435.9l.12 117.02-15 .02-.1-117.02z" fill="#fff"></path><path d="M312.1 435.9l-5 .02.12 117h5z" fill="#666"></path></g><path d="M1562.23 797.83l3.65 2.05-5.15 8.65c-1.4 2.45-5.1.35-3.7-2.05l5.2-8.65zm23.1 0l-3.65 2.05 5.15 8.65c1.4 2.45 5.1.35 3.7-2.05l-5.2-8.65z" stroke="#666" fill="#666"></path><path d="M1596.88 786.68c0-12.3-10.35-22.3-23.1-22.3-12.75 0-23.1 10-23.1 22.3s10.35 22.3 23.1 22.3c12.75 0 23.1-10 23.1-22.3z" stroke="#666" fill="#ccc"></path><path d="M1550.68 762.58c23.1-4.1 23.1-4.15 46.2 0 3.8 4.45 1.05 9.45-2.35 11.1-1.4.65-9.9-2.55-20.75-2.55-10.85-.05-19.4 3.2-20.8 2.55-3.4-1.6-6.15-6.65-2.3-11.1z" stroke="#666" fill="#666"></path><path d="M1550.68 763.68c23.1-4.1 23.1-4.15 46.2 0 3.8 4.45 1.05 9.45-2.35 11.1-1.4.65-9.9-2.55-20.75-2.55s-19.4 3.2-20.8 2.55c-3.4-1.6-6.15-6.65-2.3-11.1z" stroke="#666" fill="#ccc"></path><path d="M1549.13 775.98h5v20.4c-3.45 1.45-3.45 1.45-5 0v-20.4zm44.3 0h5v20.4c-1.55 1.45-1.55 1.45-5 0v-20.4z" stroke="#666" fill="#666"></path><g stroke="#666" fill="#999"><path d="M1548.73 834.48c0 2.77-2.24 5-5 5h-40c-2.76 0-5-2.23-5-5v-50c0-2.76 2.24-5 5-5h40c2.76 0 5 2.24 5 5z"></path><path d="M1543.73 776.98h-40m40-2.5h-40" stroke-width=".5"></path></g><path d="M1618.73 834.48c0 2.77-2.24 5-5 5h-110c-2.76 0-5-2.23-5-5v-50c0-2.76 2.24-5 5-5h110c2.76 0 5 2.24 5 5z" stroke="#666" fill="#eee"></path><g stroke="#666"><path d="M1578.2 819.42h-20.5c-1.7 0-3.07-1.35-3.07-3v-5c0-1.7 1.38-3.04 3.06-3.04h20.5c1.7 0 3 1.35 3 3.03v5.02c0 1.65-1.3 3-3 3z" fill="#ddd"></path><path d="M1588.47 811.4h-41.04l-4.08-3.02h49.2l-4.08 3.03zm-9.67 2.02h-21.7v-1.92h21.7v1.92zm-10.85 4.23c.78 0 1.44-.66 1.44-1.47 0-.3-.07-.57-.25-.8v-1.87h-2.46v1.87c-.13.24-.25.5-.25.8 0 .82.66 1.48 1.5 1.48zm30.72-14.75h-49.2v-13.42h49.2v13.4z" fill="#ddd"></path><path d="M1596.63 800.9h-35.88v-9.26h35.88v9.27zm-37.93 0h-7.2v-9.26h7.2v9.27z" fill="#6f6f6f"></path><path d="M1541.55 799.47c.78 0 1.32-.57 1.32-1.3v-4.03c0-1.12-.9-2.05-2.04-2.05-1.14 0-2.04.92-2.04 2.03v4.05c0 .72.6 1.3 1.3 1.3h1.45zm-.72 0v-2.76" fill="#ddd"></path></g><path d="M1442.23 797.83l3.65 2.05-5.15 8.65c-1.4 2.45-5.1.35-3.7-2.05l5.2-8.65zm23.1 0l-3.65 2.05 5.15 8.65c1.4 2.45 5.1.35 3.7-2.05l-5.2-8.65z" stroke="#666" fill="#666"></path><path d="M1476.88 786.68c0-12.3-10.35-22.3-23.1-22.3-12.75 0-23.1 10-23.1 22.3s10.35 22.3 23.1 22.3c12.75 0 23.1-10 23.1-22.3z" stroke="#666" fill="#ccc"></path><path d="M1430.68 762.58c23.1-4.1 23.1-4.15 46.2 0 3.8 4.45 1.05 9.45-2.35 11.1-1.4.65-9.9-2.55-20.75-2.55-10.85-.05-19.4 3.2-20.8 2.55-3.4-1.6-6.15-6.65-2.3-11.1z" stroke="#666" fill="#666"></path><path d="M1430.68 763.68c23.1-4.1 23.1-4.15 46.2 0 3.8 4.45 1.05 9.45-2.35 11.1-1.4.65-9.9-2.55-20.75-2.55s-19.4 3.2-20.8 2.55c-3.4-1.6-6.15-6.65-2.3-11.1z" stroke="#666" fill="#ccc"></path><path d="M1429.13 775.98h5v20.4c-3.45 1.45-3.45 1.45-5 0v-20.4zm44.3 0h5v20.4c-1.55 1.45-1.55 1.45-5 0v-20.4z" stroke="#666" fill="#666"></path><g stroke="#666" fill="#999"><path d="M1428.73 834.48c0 2.77-2.24 5-5 5h-40c-2.76 0-5-2.23-5-5v-50c0-2.76 2.24-5 5-5h40c2.76 0 5 2.24 5 5z"></path><path d="M1423.73 776.98h-40m40-2.5h-40" stroke-width=".5"></path></g><path d="M1498.73 834.48c0 2.77-2.24 5-5 5h-110c-2.76 0-5-2.23-5-5v-50c0-2.76 2.24-5 5-5h110c2.76 0 5 2.24 5 5z" stroke="#666" fill="#eee"></path><g stroke="#666"><path d="M1458.2 819.42h-20.5c-1.7 0-3.07-1.35-3.07-3v-5c0-1.7 1.38-3.04 3.06-3.04h20.5c1.7 0 3 1.35 3 3.03v5.02c0 1.65-1.3 3-3 3z" fill="#ddd"></path><path d="M1468.47 811.4h-41.04l-4.08-3.02h49.2l-4.08 3.03zm-9.67 2.02h-21.7v-1.92h21.7v1.92zm-10.85 4.23c.78 0 1.44-.66 1.44-1.47 0-.3-.07-.57-.25-.8v-1.87h-2.46v1.87c-.13.24-.25.5-.25.8 0 .82.66 1.48 1.5 1.48zm30.72-14.75h-49.2v-13.42h49.2v13.4z" fill="#ddd"></path><path d="M1476.63 800.9h-35.88v-9.26h35.88v9.27zm-37.93 0h-7.2v-9.26h7.2v9.27z" fill="#6f6f6f"></path><path d="M1421.55 799.47c.78 0 1.32-.57 1.32-1.3v-4.03c0-1.12-.9-2.05-2.04-2.05-1.14 0-2.04.92-2.04 2.03v4.05c0 .72.6 1.3 1.3 1.3h1.45zm-.72 0v-2.76" fill="#ddd"></path></g><path d="M1322.23 797.83l3.65 2.05-5.15 8.65c-1.4 2.45-5.1.35-3.7-2.05l5.2-8.65zm23.1 0l-3.65 2.05 5.15 8.65c1.4 2.45 5.1.35 3.7-2.05l-5.2-8.65z" stroke="#666" fill="#666"></path><path d="M1356.88 786.68c0-12.3-10.35-22.3-23.1-22.3-12.75 0-23.1 10-23.1 22.3s10.35 22.3 23.1 22.3c12.75 0 23.1-10 23.1-22.3z" stroke="#666" fill="#ccc"></path><path d="M1310.68 762.58c23.1-4.1 23.1-4.15 46.2 0 3.8 4.45 1.05 9.45-2.35 11.1-1.4.65-9.9-2.55-20.75-2.55-10.85-.05-19.4 3.2-20.8 2.55-3.4-1.6-6.15-6.65-2.3-11.1z" stroke="#666" fill="#666"></path><path d="M1310.68 763.68c23.1-4.1 23.1-4.15 46.2 0 3.8 4.45 1.05 9.45-2.35 11.1-1.4.65-9.9-2.55-20.75-2.55s-19.4 3.2-20.8 2.55c-3.4-1.6-6.15-6.65-2.3-11.1z" stroke="#666" fill="#ccc"></path><path d="M1309.13 775.98h5v20.4c-3.45 1.45-3.45 1.45-5 0v-20.4zm44.3 0h5v20.4c-1.55 1.45-1.55 1.45-5 0v-20.4z" stroke="#666" fill="#666"></path><g stroke="#666" fill="#999"><path d="M1308.73 834.48c0 2.77-2.24 5-5 5h-40c-2.76 0-5-2.23-5-5v-50c0-2.76 2.24-5 5-5h40c2.76 0 5 2.24 5 5z"></path><path d="M1303.73 776.98h-40m40-2.5h-40" stroke-width=".5"></path></g><path d="M1378.73 834.48c0 2.77-2.24 5-5 5h-110c-2.76 0-5-2.23-5-5v-50c0-2.76 2.24-5 5-5h110c2.76 0 5 2.24 5 5z" id="desk004" stroke="#666" fill="#eee"></path><g stroke="#666"><path d="M1338.2 819.42h-20.5c-1.7 0-3.07-1.35-3.07-3v-5c0-1.7 1.38-3.04 3.06-3.04h20.5c1.7 0 3 1.35 3 3.03v5.02c0 1.65-1.3 3-3 3z" fill="#ddd"></path><path d="M1348.47 811.4h-41.04l-4.08-3.02h49.2l-4.08 3.03zm-9.67 2.02h-21.7v-1.92h21.7v1.92zm-10.85 4.23c.78 0 1.44-.66 1.44-1.47 0-.3-.07-.57-.25-.8v-1.87h-2.46v1.87c-.13.24-.25.5-.25.8 0 .82.66 1.48 1.5 1.48zm30.72-14.75h-49.2v-13.42h49.2v13.4z" fill="#ddd"></path><path d="M1356.63 800.9h-35.88v-9.26h35.88v9.27zm-37.93 0h-7.2v-9.26h7.2v9.27z" fill="#6f6f6f"></path><path d="M1301.55 799.47c.78 0 1.32-.57 1.32-1.3v-4.03c0-1.12-.9-2.05-2.04-2.05-1.14 0-2.04.92-2.04 2.03v4.05c0 .72.6 1.3 1.3 1.3h1.45zm-.72 0v-2.76" fill="#ddd"></path></g><path d="M1202.23 797.83l3.65 2.05-5.15 8.65c-1.4 2.45-5.1.35-3.7-2.05l5.2-8.65zm23.1 0l-3.65 2.05 5.15 8.65c1.4 2.45 5.1.35 3.7-2.05l-5.2-8.65z" stroke="#666" fill="#666"></path><path d="M1236.88 786.68c0-12.3-10.35-22.3-23.1-22.3-12.75 0-23.1 10-23.1 22.3s10.35 22.3 23.1 22.3c12.75 0 23.1-10 23.1-22.3z" stroke="#666" fill="#ccc"></path><path d="M1190.68 762.58c23.1-4.1 23.1-4.15 46.2 0 3.8 4.45 1.05 9.45-2.35 11.1-1.4.65-9.9-2.55-20.75-2.55-10.85-.05-19.4 3.2-20.8 2.55-3.4-1.6-6.15-6.65-2.3-11.1z" stroke="#666" fill="#666"></path><path d="M1190.68 763.68c23.1-4.1 23.1-4.15 46.2 0 3.8 4.45 1.05 9.45-2.35 11.1-1.4.65-9.9-2.55-20.75-2.55s-19.4 3.2-20.8 2.55c-3.4-1.6-6.15-6.65-2.3-11.1z" stroke="#666" fill="#ccc"></path><path d="M1189.13 775.98h5v20.4c-3.45 1.45-3.45 1.45-5 0v-20.4zm44.3 0h5v20.4c-1.55 1.45-1.55 1.45-5 0v-20.4z" stroke="#666" fill="#666"></path><g stroke="#666" fill="#999"><path d="M1188.73 834.48c0 2.77-2.24 5-5 5h-40c-2.76 0-5-2.23-5-5v-50c0-2.76 2.24-5 5-5h40c2.76 0 5 2.24 5 5z"></path><path d="M1183.73 776.98h-40m40-2.5h-40" stroke-width=".5"></path></g><path d="M1258.73,834.48 c0,2.77 -2.24,5 -5,5 h-110 c-2.76,0 -5,-2.23 -5,-5 v-50 c0,-2.76 2.24,-5 5,-5 h110 c2.76,0 5,2.24 5,5  z " id="rec12XZlCEihbOzkI" stroke="#666" fill="#eee"></path><g stroke="#666"><path d="M1218.2 819.42h-20.5c-1.7 0-3.07-1.35-3.07-3v-5c0-1.7 1.38-3.04 3.06-3.04h20.5c1.7 0 3 1.35 3 3.03v5.02c0 1.65-1.3 3-3 3z" fill="#ddd"></path><path d="M1228.47 811.4h-41.04l-4.08-3.02h49.2l-4.08 3.03zm-9.67 2.02h-21.7v-1.92h21.7v1.92zm-10.85 4.23c.78 0 1.44-.66 1.44-1.47 0-.3-.07-.57-.25-.8v-1.87h-2.46v1.87c-.13.24-.25.5-.25.8 0 .82.66 1.48 1.5 1.48zm30.72-14.75h-49.2v-13.42h49.2v13.4z" fill="#ddd"></path><path d="M1236.63 800.9h-35.88v-9.26h35.88v9.27zm-37.93 0h-7.2v-9.26h7.2v9.27z" fill="#6f6f6f"></path><path d="M1181.55 799.47c.78 0 1.32-.57 1.32-1.3v-4.03c0-1.12-.9-2.05-2.04-2.05-1.14 0-2.04.92-2.04 2.03v4.05c0 .72.6 1.3 1.3 1.3h1.45zm-.72 0v-2.76" fill="#ddd"></path></g><path d="M1082.23 797.83l3.65 2.05-5.15 8.65c-1.4 2.45-5.1.35-3.7-2.05l5.2-8.65zm23.1 0l-3.65 2.05 5.15 8.65c1.4 2.45 5.1.35 3.7-2.05l-5.2-8.65z" stroke="#666" fill="#666"></path><path d="M1116.88 786.68c0-12.3-10.35-22.3-23.1-22.3-12.75 0-23.1 10-23.1 22.3s10.35 22.3 23.1 22.3c12.75 0 23.1-10 23.1-22.3z" stroke="#666" fill="#ccc"></path><path d="M1070.68 762.58c23.1-4.1 23.1-4.15 46.2 0 3.8 4.45 1.05 9.45-2.35 11.1-1.4.65-9.9-2.55-20.75-2.55-10.85-.05-19.4 3.2-20.8 2.55-3.4-1.6-6.15-6.65-2.3-11.1z" stroke="#666" fill="#666"></path><path d="M1070.68 763.68c23.1-4.1 23.1-4.15 46.2 0 3.8 4.45 1.05 9.45-2.35 11.1-1.4.65-9.9-2.55-20.75-2.55s-19.4 3.2-20.8 2.55c-3.4-1.6-6.15-6.65-2.3-11.1z" stroke="#666" fill="#ccc"></path><path d="M1069.13 775.98h5v20.4c-3.45 1.45-3.45 1.45-5 0v-20.4zm44.3 0h5v20.4c-1.55 1.45-1.55 1.45-5 0v-20.4z" stroke="#666" fill="#666"></path><g stroke="#666" fill="#999"><path d="M1068.73 834.48c0 2.77-2.24 5-5 5h-40c-2.76 0-5-2.23-5-5v-50c0-2.76 2.24-5 5-5h40c2.76 0 5 2.24 5 5z"></path><path d="M1063.73 776.98h-40m40-2.5h-40" stroke-width=".5"></path></g><path d="M1138.73,834.48 c0,2.77 -2.24,5 -5,5 h-110 c-2.76,0 -5,-2.23 -5,-5 v-50 c0,-2.76 2.24,-5 5,-5 h110 c2.76,0 5,2.24 5,5  z " id="recrthAm0SlCEzGxx" stroke="#666" fill="#eee"></path><g stroke="#666"><path d="M1098.2 819.42h-20.5c-1.7 0-3.07-1.35-3.07-3v-5c0-1.7 1.38-3.04 3.06-3.04h20.5c1.7 0 3 1.35 3 3.03v5.02c0 1.65-1.3 3-3 3z" fill="#ddd"></path><path d="M1108.47 811.4h-41.04l-4.08-3.02h49.2l-4.08 3.03zm-9.67 2.02h-21.7v-1.92h21.7v1.92zm-10.85 4.23c.78 0 1.44-.66 1.44-1.47 0-.3-.07-.57-.25-.8v-1.87h-2.46v1.87c-.13.24-.25.5-.25.8 0 .82.66 1.48 1.5 1.48zm30.72-14.75h-49.2v-13.42h49.2v13.4z" fill="#ddd"></path><path d="M1116.63 800.9h-35.88v-9.26h35.88v9.27zm-37.93 0h-7.2v-9.26h7.2v9.27z" fill="#6f6f6f"></path><path d="M1061.55 799.47c.78 0 1.32-.57 1.32-1.3v-4.03c0-1.12-.9-2.05-2.04-2.05-1.14 0-2.04.92-2.04 2.03v4.05c0 .72.6 1.3 1.3 1.3h1.45zm-.72 0v-2.76" fill="#ddd"></path></g><path d="M962.23 797.83l3.65 2.05-5.15 8.65c-1.4 2.45-5.1.35-3.7-2.05l5.2-8.65zm23.1 0l-3.65 2.05 5.15 8.65c1.4 2.45 5.1.35 3.7-2.05l-5.2-8.65z" stroke="#666" fill="#666"></path><path d="M996.88 786.68c0-12.3-10.35-22.3-23.1-22.3-12.75 0-23.1 10-23.1 22.3s10.35 22.3 23.1 22.3c12.75 0 23.1-10 23.1-22.3z" stroke="#666" fill="#ccc"></path><path d="M950.68 762.58c23.1-4.1 23.1-4.15 46.2 0 3.8 4.45 1.05 9.45-2.35 11.1-1.4.65-9.9-2.55-20.75-2.55-10.85-.05-19.4 3.2-20.8 2.55-3.4-1.6-6.15-6.65-2.3-11.1z" stroke="#666" fill="#666"></path><path d="M950.68 763.68c23.1-4.1 23.1-4.15 46.2 0 3.8 4.45 1.05 9.45-2.35 11.1-1.4.65-9.9-2.55-20.75-2.55s-19.4 3.2-20.8 2.55c-3.4-1.6-6.15-6.65-2.3-11.1z" stroke="#666" fill="#ccc"></path><path d="M949.13 775.98h5v20.4c-3.45 1.45-3.45 1.45-5 0v-20.4zm44.3 0h5v20.4c-1.55 1.45-1.55 1.45-5 0v-20.4z" stroke="#666" fill="#666"></path><g stroke="#666" fill="#999"><path d="M948.73 834.48c0 2.77-2.24 5-5 5h-40c-2.76 0-5-2.23-5-5v-50c0-2.76 2.24-5 5-5h40c2.76 0 5 2.24 5 5z"></path><path d="M943.73 776.98h-40m40-2.5h-40" stroke-width=".5"></path></g><path d="M1018.73,834.48 c0,2.77 -2.24,5 -5,5 h-110 c-2.76,0 -5,-2.23 -5,-5 v-50 c0,-2.76 2.24,-5 5,-5 h110 c2.76,0 5,2.24 5,5  z " id="recvFUqEEMgV9MpUp" stroke="#666" fill="#eee"></path><g stroke="#666"><path d="M978.2 819.42h-20.5c-1.7 0-3.07-1.35-3.07-3v-5c0-1.7 1.38-3.04 3.06-3.04h20.5c1.7 0 3 1.35 3 3.03v5.02c0 1.65-1.3 3-3 3z" fill="#ddd"></path><path d="M988.47 811.4h-41.04l-4.08-3.02h49.2l-4.08 3.03zm-9.67 2.02h-21.7v-1.92h21.7v1.92zm-10.85 4.23c.78 0 1.44-.66 1.44-1.47 0-.3-.07-.57-.25-.8v-1.87h-2.46v1.87c-.13.24-.25.5-.25.8 0 .82.66 1.48 1.5 1.48zm30.72-14.75h-49.2v-13.42h49.2v13.4z" fill="#ddd"></path><path d="M996.63 800.9h-35.88v-9.26h35.88v9.27zm-37.93 0h-7.2v-9.26h7.2v9.27z" fill="#6f6f6f"></path><path d="M941.55 799.47c.78 0 1.32-.57 1.32-1.3v-4.03c0-1.12-.9-2.05-2.04-2.05-1.14 0-2.04.92-2.04 2.03v4.05c0 .72.6 1.3 1.3 1.3h1.45zm-.72 0v-2.76" fill="#ddd"></path></g><g stroke="#666"><path d="M955.23 881.13l-3.65-2.05 5.15-8.65c1.4-2.45 5.1-.35 3.7 2.05l-5.2 8.65zm-23.1 0l3.65-2.05-5.15-8.65c-1.4-2.45-5.1-.35-3.7 2.05l5.2 8.65z" fill="#666"></path><path d="M920.58 892.28c0 12.3 10.35 22.3 23.1 22.3 12.75 0 23.1-10 23.1-22.3s-10.35-22.3-23.1-22.3c-12.75 0-23.1 10-23.1 22.3z" fill="#ccc"></path><path d="M966.78 916.38c-23.1 4.1-23.1 4.15-46.2 0-3.8-4.45-1.05-9.45 2.35-11.1 1.4-.65 9.9 2.55 20.75 2.55 10.85.05 19.4-3.2 20.8-2.55 3.4 1.6 6.15 6.65 2.3 11.1z" fill="#666"></path><path d="M966.78 915.28c-23.1 4.1-23.1 4.15-46.2 0-3.8-4.45-1.05-9.45 2.35-11.1 1.4-.65 9.9 2.55 20.75 2.55s19.4-3.2 20.8-2.55c3.4 1.6 6.15 6.65 2.3 11.1z" fill="#ccc"></path><path d="M968.33 902.98h-5v-20.4c3.45-1.45 3.45-1.45 5 0v20.4zm-44.3 0h-5v-20.4c1.55-1.45 1.55-1.45 5 0v20.4z" fill="#666"></path></g><path d="M968.73 844.48c0-2.76 2.24-5 5-5h40c2.76 0 5 2.24 5 5v50c0 2.77-2.24 5-5 5h-40c-2.76 0-5-2.23-5-5z" stroke="#666" fill="#999"></path><path d="M973.73 901.98h40m-40 2.5h40" stroke="#666" stroke-width=".5" fill="#999"></path><path d="M898.73 844.48c0-2.76 2.24-5 5-5h110c2.76 0 5 2.24 5 5v50c0 2.77-2.24 5-5 5h-110c-2.76 0-5-2.23-5-5z" stroke="#666" fill="#eee"></path><path d="M939.25 859.54h20.52c1.68 0 3.06 1.35 3.06 3v5c0 1.7-1.38 3.04-3.06 3.04h-20.52c-1.68 0-3-1.35-3-3.03v-5c0-1.66 1.32-3 3-3z" stroke="#666" fill="#ddd"></path><path d="M929 867.55h41.03l4.08 3.03h-49.2l4.1-3.03zm9.65-2.01h21.72v1.92h-21.72v-1.92zm10.85-4.24c-.77 0-1.43.67-1.43 1.48 0 .3.06.57.24.8v1.87h2.47v-1.86c.12-.25.24-.52.24-.82 0-.8-.65-1.47-1.5-1.47zm-30.7 14.77H968v13.4h-49.2v-13.4z" stroke="#666" fill="#ddd"></path><path d="M920.83 878.05h35.88v9.27h-35.87v-9.27zm37.92 0h7.2v9.27h-7.2v-9.27z" stroke="#666" fill="#6f6f6f"></path><path d="M975.9 879.5c-.77 0-1.3.56-1.3 1.28v4.04c0 1.12.9 2.05 2.03 2.05 1.14 0 2.04-.93 2.04-2.04v-4.05c0-.72-.6-1.3-1.32-1.3h-1.44zm.73 0v2.75" stroke="#666" fill="#ddd"></path><g stroke="#666"><path d="M1075.23 881.13l-3.65-2.05 5.15-8.65c1.4-2.45 5.1-.35 3.7 2.05l-5.2 8.65zm-23.1 0l3.65-2.05-5.15-8.65c-1.4-2.45-5.1-.35-3.7 2.05l5.2 8.65z" fill="#666"></path><path d="M1040.58 892.28c0 12.3 10.35 22.3 23.1 22.3 12.75 0 23.1-10 23.1-22.3s-10.35-22.3-23.1-22.3c-12.75 0-23.1 10-23.1 22.3z" fill="#ccc"></path><path d="M1086.78 916.38c-23.1 4.1-23.1 4.15-46.2 0-3.8-4.45-1.05-9.45 2.35-11.1 1.4-.65 9.9 2.55 20.75 2.55 10.85.05 19.4-3.2 20.8-2.55 3.4 1.6 6.15 6.65 2.3 11.1z" fill="#666"></path><path d="M1086.78 915.28c-23.1 4.1-23.1 4.15-46.2 0-3.8-4.45-1.05-9.45 2.35-11.1 1.4-.65 9.9 2.55 20.75 2.55s19.4-3.2 20.8-2.55c3.4 1.6 6.15 6.65 2.3 11.1z" fill="#ccc"></path><path d="M1088.33 902.98h-5v-20.4c3.45-1.45 3.45-1.45 5 0v20.4zm-44.3 0h-5v-20.4c1.55-1.45 1.55-1.45 5 0v20.4z" fill="#666"></path></g><path d="M1088.73 844.48c0-2.76 2.24-5 5-5h40c2.76 0 5 2.24 5 5v50c0 2.77-2.24 5-5 5h-40c-2.76 0-5-2.23-5-5z" stroke="#666" fill="#999"></path><path d="M1093.73 901.98h40m-40 2.5h40" stroke="#666" stroke-width=".5" fill="#999"></path><path d="M1018.73 844.48c0-2.76 2.24-5 5-5h110c2.76 0 5 2.24 5 5v50c0 2.77-2.24 5-5 5h-110c-2.76 0-5-2.23-5-5z" stroke="#666" fill="#eee"></path><path d="M1059.25 859.54h20.52c1.68 0 3.06 1.35 3.06 3v5c0 1.7-1.38 3.04-3.06 3.04h-20.52c-1.68 0-3-1.35-3-3.03v-5c0-1.66 1.32-3 3-3z" stroke="#666" fill="#ddd"></path><path d="M1049 867.55h41.03l4.08 3.03h-49.2l4.1-3.03zm9.65-2.01h21.72v1.92h-21.72v-1.92zm10.85-4.24c-.77 0-1.43.67-1.43 1.48 0 .3.06.57.24.8v1.87h2.47v-1.86c.12-.25.24-.52.24-.82 0-.8-.65-1.47-1.5-1.47zm-30.7 14.77h49.2v13.4h-49.2v-13.4z" stroke="#666" fill="#ddd"></path><path d="M1040.83 878.05h35.88v9.27h-35.87v-9.27zm37.92 0h7.2v9.27h-7.2v-9.27z" stroke="#666" fill="#6f6f6f"></path><path d="M1095.9 879.5c-.77 0-1.3.56-1.3 1.28v4.04c0 1.12.9 2.05 2.03 2.05 1.14 0 2.04-.93 2.04-2.04v-4.05c0-.72-.6-1.3-1.32-1.3h-1.44zm.73 0v2.75" stroke="#666" fill="#ddd"></path><g stroke="#666"><path d="M1195.23 881.13l-3.65-2.05 5.15-8.65c1.4-2.45 5.1-.35 3.7 2.05l-5.2 8.65zm-23.1 0l3.65-2.05-5.15-8.65c-1.4-2.45-5.1-.35-3.7 2.05l5.2 8.65z" fill="#666"></path><path d="M1160.58 892.28c0 12.3 10.35 22.3 23.1 22.3 12.75 0 23.1-10 23.1-22.3s-10.35-22.3-23.1-22.3c-12.75 0-23.1 10-23.1 22.3z" fill="#ccc"></path><path d="M1206.78 916.38c-23.1 4.1-23.1 4.15-46.2 0-3.8-4.45-1.05-9.45 2.35-11.1 1.4-.65 9.9 2.55 20.75 2.55 10.85.05 19.4-3.2 20.8-2.55 3.4 1.6 6.15 6.65 2.3 11.1z" fill="#666"></path><path d="M1206.78 915.28c-23.1 4.1-23.1 4.15-46.2 0-3.8-4.45-1.05-9.45 2.35-11.1 1.4-.65 9.9 2.55 20.75 2.55s19.4-3.2 20.8-2.55c3.4 1.6 6.15 6.65 2.3 11.1z" fill="#ccc"></path><path d="M1208.33 902.98h-5v-20.4c3.45-1.45 3.45-1.45 5 0v20.4zm-44.3 0h-5v-20.4c1.55-1.45 1.55-1.45 5 0v20.4z" fill="#666"></path></g><path d="M1208.73 844.48c0-2.76 2.24-5 5-5h40c2.76 0 5 2.24 5 5v50c0 2.77-2.24 5-5 5h-40c-2.76 0-5-2.23-5-5z" stroke="#666" fill="#999"></path><path d="M1213.73 901.98h40m-40 2.5h40" stroke="#666" stroke-width=".5" fill="#999"></path><path d="M1138.73 844.48c0-2.76 2.24-5 5-5h110c2.76 0 5 2.24 5 5v50c0 2.77-2.24 5-5 5h-110c-2.76 0-5-2.23-5-5z" stroke="#666" fill="#eee"></path><path d="M1179.25 859.54h20.52c1.68 0 3.06 1.35 3.06 3v5c0 1.7-1.38 3.04-3.06 3.04h-20.52c-1.68 0-3-1.35-3-3.03v-5c0-1.66 1.32-3 3-3z" stroke="#666" fill="#ddd"></path><path d="M1169 867.55h41.03l4.08 3.03h-49.2l4.1-3.03zm9.65-2.01h21.72v1.92h-21.72v-1.92zm10.85-4.24c-.77 0-1.43.67-1.43 1.48 0 .3.06.57.24.8v1.87h2.47v-1.86c.12-.25.24-.52.24-.82 0-.8-.65-1.47-1.5-1.47zm-30.7 14.77h49.2v13.4h-49.2v-13.4z" stroke="#666" fill="#ddd"></path><path d="M1160.83 878.05h35.88v9.27h-35.87v-9.27zm37.92 0h7.2v9.27h-7.2v-9.27z" stroke="#666" fill="#6f6f6f"></path><path d="M1215.9 879.5c-.77 0-1.3.56-1.3 1.28v4.04c0 1.12.9 2.05 2.03 2.05 1.14 0 2.04-.93 2.04-2.04v-4.05c0-.72-.6-1.3-1.32-1.3h-1.44zm.73 0v2.75" stroke="#666" fill="#ddd"></path><g stroke="#666"><path d="M1315.23 881.13l-3.65-2.05 5.15-8.65c1.4-2.45 5.1-.35 3.7 2.05l-5.2 8.65zm-23.1 0l3.65-2.05-5.15-8.65c-1.4-2.45-5.1-.35-3.7 2.05l5.2 8.65z" fill="#666"></path><path d="M1280.58 892.28c0 12.3 10.35 22.3 23.1 22.3 12.75 0 23.1-10 23.1-22.3s-10.35-22.3-23.1-22.3c-12.75 0-23.1 10-23.1 22.3z" fill="#ccc"></path><path d="M1326.78 916.38c-23.1 4.1-23.1 4.15-46.2 0-3.8-4.45-1.05-9.45 2.35-11.1 1.4-.65 9.9 2.55 20.75 2.55 10.85.05 19.4-3.2 20.8-2.55 3.4 1.6 6.15 6.65 2.3 11.1z" fill="#666"></path><path d="M1326.78 915.28c-23.1 4.1-23.1 4.15-46.2 0-3.8-4.45-1.05-9.45 2.35-11.1 1.4-.65 9.9 2.55 20.75 2.55s19.4-3.2 20.8-2.55c3.4 1.6 6.15 6.65 2.3 11.1z" fill="#ccc"></path><path d="M1328.33 902.98h-5v-20.4c3.45-1.45 3.45-1.45 5 0v20.4zm-44.3 0h-5v-20.4c1.55-1.45 1.55-1.45 5 0v20.4z" fill="#666"></path></g><path d="M1328.73 844.48c0-2.76 2.24-5 5-5h40c2.76 0 5 2.24 5 5v50c0 2.77-2.24 5-5 5h-40c-2.76 0-5-2.23-5-5z" stroke="#666" fill="#999"></path><path d="M1333.73 901.98h40m-40 2.5h40" stroke="#666" stroke-width=".5" fill="#999"></path><path d="M1258.73 844.48c0-2.76 2.24-5 5-5h110c2.76 0 5 2.24 5 5v50c0 2.77-2.24 5-5 5h-110c-2.76 0-5-2.23-5-5z" stroke="#666" fill="#eee"></path><path d="M1299.25 859.54h20.52c1.68 0 3.06 1.35 3.06 3v5c0 1.7-1.38 3.04-3.06 3.04h-20.52c-1.68 0-3-1.35-3-3.03v-5c0-1.66 1.32-3 3-3z" stroke="#666" fill="#ddd"></path><path d="M1289 867.55h41.03l4.08 3.03h-49.2l4.1-3.03zm9.65-2.01h21.72v1.92h-21.72v-1.92zm10.85-4.24c-.77 0-1.43.67-1.43 1.48 0 .3.06.57.24.8v1.87h2.47v-1.86c.12-.25.24-.52.24-.82 0-.8-.65-1.47-1.5-1.47zm-30.7 14.77h49.2v13.4h-49.2v-13.4z" stroke="#666" fill="#ddd"></path><path d="M1280.83 878.05h35.88v9.27h-35.87v-9.27zm37.92 0h7.2v9.27h-7.2v-9.27z" stroke="#666" fill="#6f6f6f"></path><path d="M1335.9 879.5c-.77 0-1.3.56-1.3 1.28v4.04c0 1.12.9 2.05 2.03 2.05 1.14 0 2.04-.93 2.04-2.04v-4.05c0-.72-.6-1.3-1.32-1.3h-1.44zm.73 0v2.75" stroke="#666" fill="#ddd"></path><g stroke="#666"><path d="M1435.23 881.13l-3.65-2.05 5.15-8.65c1.4-2.45 5.1-.35 3.7 2.05l-5.2 8.65zm-23.1 0l3.65-2.05-5.15-8.65c-1.4-2.45-5.1-.35-3.7 2.05l5.2 8.65z" fill="#666"></path><path d="M1400.58 892.28c0 12.3 10.35 22.3 23.1 22.3 12.75 0 23.1-10 23.1-22.3s-10.35-22.3-23.1-22.3c-12.75 0-23.1 10-23.1 22.3z" fill="#ccc"></path><path d="M1446.78 916.38c-23.1 4.1-23.1 4.15-46.2 0-3.8-4.45-1.05-9.45 2.35-11.1 1.4-.65 9.9 2.55 20.75 2.55 10.85.05 19.4-3.2 20.8-2.55 3.4 1.6 6.15 6.65 2.3 11.1z" fill="#666"></path><path d="M1446.78 915.28c-23.1 4.1-23.1 4.15-46.2 0-3.8-4.45-1.05-9.45 2.35-11.1 1.4-.65 9.9 2.55 20.75 2.55s19.4-3.2 20.8-2.55c3.4 1.6 6.15 6.65 2.3 11.1z" fill="#ccc"></path><path d="M1448.33 902.98h-5v-20.4c3.45-1.45 3.45-1.45 5 0v20.4zm-44.3 0h-5v-20.4c1.55-1.45 1.55-1.45 5 0v20.4z" fill="#666"></path></g><path d="M1448.73 844.48c0-2.76 2.24-5 5-5h40c2.76 0 5 2.24 5 5v50c0 2.77-2.24 5-5 5h-40c-2.76 0-5-2.23-5-5z" stroke="#666" fill="#999"></path><path d="M1453.73 901.98h40m-40 2.5h40" stroke="#666" stroke-width=".5" fill="#999"></path><path d="M1378.73 844.48c0-2.76 2.24-5 5-5h110c2.76 0 5 2.24 5 5v50c0 2.77-2.24 5-5 5h-110c-2.76 0-5-2.23-5-5z" stroke="#666" fill="#eee"></path><path d="M1419.25 859.54h20.52c1.68 0 3.06 1.35 3.06 3v5c0 1.7-1.38 3.04-3.06 3.04h-20.52c-1.68 0-3-1.35-3-3.03v-5c0-1.66 1.32-3 3-3z" stroke="#666" fill="#ddd"></path><path d="M1409 867.55h41.03l4.08 3.03h-49.2l4.1-3.03zm9.65-2.01h21.72v1.92h-21.72v-1.92zm10.85-4.24c-.77 0-1.43.67-1.43 1.48 0 .3.06.57.24.8v1.87h2.47v-1.86c.12-.25.24-.52.24-.82 0-.8-.65-1.47-1.5-1.47zm-30.7 14.77h49.2v13.4h-49.2v-13.4z" stroke="#666" fill="#ddd"></path><path d="M1400.83 878.05h35.88v9.27h-35.87v-9.27zm37.92 0h7.2v9.27h-7.2v-9.27z" stroke="#666" fill="#6f6f6f"></path><path d="M1455.9 879.5c-.77 0-1.3.56-1.3 1.28v4.04c0 1.12.9 2.05 2.03 2.05 1.14 0 2.04-.93 2.04-2.04v-4.05c0-.72-.6-1.3-1.32-1.3h-1.44zm.73 0v2.75" stroke="#666" fill="#ddd"></path><g stroke="#666"><path d="M1555.23 881.13l-3.65-2.05 5.15-8.65c1.4-2.45 5.1-.35 3.7 2.05l-5.2 8.65zm-23.1 0l3.65-2.05-5.15-8.65c-1.4-2.45-5.1-.35-3.7 2.05l5.2 8.65z" fill="#666"></path><path d="M1520.58 892.28c0 12.3 10.35 22.3 23.1 22.3 12.75 0 23.1-10 23.1-22.3s-10.35-22.3-23.1-22.3c-12.75 0-23.1 10-23.1 22.3z" fill="#ccc"></path><path d="M1566.78 916.38c-23.1 4.1-23.1 4.15-46.2 0-3.8-4.45-1.05-9.45 2.35-11.1 1.4-.65 9.9 2.55 20.75 2.55 10.85.05 19.4-3.2 20.8-2.55 3.4 1.6 6.15 6.65 2.3 11.1z" fill="#666"></path><path d="M1566.78 915.28c-23.1 4.1-23.1 4.15-46.2 0-3.8-4.45-1.05-9.45 2.35-11.1 1.4-.65 9.9 2.55 20.75 2.55s19.4-3.2 20.8-2.55c3.4 1.6 6.15 6.65 2.3 11.1z" fill="#ccc"></path><path d="M1568.33 902.98h-5v-20.4c3.45-1.45 3.45-1.45 5 0v20.4zm-44.3 0h-5v-20.4c1.55-1.45 1.55-1.45 5 0v20.4z" fill="#666"></path></g><path d="M1568.73 844.48c0-2.76 2.24-5 5-5h40c2.76 0 5 2.24 5 5v50c0 2.77-2.24 5-5 5h-40c-2.76 0-5-2.23-5-5z" stroke="#666" fill="#999"></path><path d="M1573.73 901.98h40m-40 2.5h40" stroke="#666" stroke-width=".5" fill="#999"></path><path d="M1498.73 844.48c0-2.76 2.24-5 5-5h110c2.76 0 5 2.24 5 5v50c0 2.77-2.24 5-5 5h-110c-2.76 0-5-2.23-5-5z" stroke="#666" fill="#eee"></path><path d="M1539.25 859.54h20.52c1.68 0 3.06 1.35 3.06 3v5c0 1.7-1.38 3.04-3.06 3.04h-20.52c-1.68 0-3-1.35-3-3.03v-5c0-1.66 1.32-3 3-3z" stroke="#666" fill="#ddd"></path><path d="M1529 867.55h41.03l4.08 3.03h-49.2l4.1-3.03zm9.65-2.01h21.72v1.92h-21.72v-1.92zm10.85-4.24c-.77 0-1.43.67-1.43 1.48 0 .3.06.57.24.8v1.87h2.47v-1.86c.12-.25.24-.52.24-.82 0-.8-.65-1.47-1.5-1.47zm-30.7 14.77h49.2v13.4h-49.2v-13.4z" stroke="#666" fill="#ddd"></path><path d="M1520.83 878.05h35.88v9.27h-35.87v-9.27zm37.92 0h7.2v9.27h-7.2v-9.27z" stroke="#666" fill="#6f6f6f"></path><path d="M1575.9 879.5c-.77 0-1.3.56-1.3 1.28v4.04c0 1.12.9 2.05 2.03 2.05 1.14 0 2.04-.93 2.04-2.04v-4.05c0-.72-.6-1.3-1.32-1.3h-1.44zm.73 0v2.75" stroke="#666" fill="#ddd"></path><path d="M895.32 1041.3l6.24 6.25 6.24 6.25h739.35l6.25-6.25-6.25-6.25z" fill="#fff"></path><path d="M895.32 1041.3h751.83m0 12.5H907.8m-12.48-12.5" stroke="#666" fill="none"></path><use xlink:href="#i" transform="translate(1254.487 1025.699)"></use><path d="M907.8 1053.8l-6.24-6.25-6.24-6.25-.14 82.27 12.5.03zm-.42 249.8l-12.5-.03-.13 74.24 6.24 6.26 6.25-6.25z" fill="#fff"></path><path d="M907.8 1053.8l-.12 69.8-12.5-.03.14-82.27m12.06 262.3l-.13 74.2m-12.5 0l.13-74.23 12.5.03" stroke="#666" fill="none"></path><use xlink:href="#j" transform="rotate(-89.902 1087.813 150.065)"></use><g fill="none"><path d="M834.16 1384.06v-90m-90 90c0-49.7 40.3-90 90-90" stroke="#666"></path><path d="M834.16 1379.06c0 2.76-2.24 5-5 5h-80c-2.76 0-5-2.24-5-5v-80c0-2.76 2.24-5 5-5h80c2.76 0 5 2.24 5 5z"></path></g><g stroke="#666"><path d="M1448.93 1260.8l-5.12-1.6 4.42-11.92c1.17-3.36 6.37-1.72 5.18 1.58l-4.47 11.93zm-29.25 5.8l4.12-3.43-8.64-9.32c-2.37-2.65-6.54.86-4.18 3.45l8.7 9.3z" fill="#666"></path><path d="M1407.77 1283.2c3 15.1 18.55 24.77 34.7 21.56 16.15-3.2 26.8-18.1 23.8-33.2-3-15.1-18.54-24.76-34.7-21.55-16.14 3.22-26.8 18.1-23.8 33.2z" fill="#ccc"></path><path d="M1472.16 1301.15c-28.25 10.85-28.24 10.92-58.5 11.64-5.9-4.5-3.64-11.35.26-14.23 1.62-1.15 13.16.64 26.9-2.1 13.75-2.67 23.8-8.8 25.72-8.36 4.7 1.1 9.4 6.62 5.62 13.05z" fill="#666"></path><path d="M1471.9 1299.8c-28.26 10.85-28.25 10.92-58.5 11.64-5.9-4.5-3.65-11.34.25-14.22 1.62-1.15 13.16.64 26.9-2.1 13.74-2.73 23.8-8.8 25.72-8.36 4.7 1.1 9.4 6.6 5.62 13.04z" fill="#ccc"></path><path d="M1470.85 1284.3l-6.33 1.27-4.98-25.04c4-2.65 4-2.65 6.33-1.26l4.98 25.04zm-56.1 11.17l-6.33 1.26-4.98-25.04c1.6-2.18 1.6-2.18 6.33-1.27l4.98 25.04z" fill="#666"></path></g><g stroke="#666"><path d="M1365.08 1275.97l-4.87-2.25 5.94-11.24c1.6-3.18 6.54-.87 4.93 2.25l-6 11.24zm-29.76 1.95l4.54-2.87-7.35-10.37c-2-2.94-6.6 0-4.6 2.87l7.42 10.37z" fill="#666"></path><path d="M1321.35 1292.82c1 15.36 15.16 26.98 31.6 25.9 16.42-1.08 28.93-14.44 27.93-29.8-1-15.36-15.16-26.98-31.6-25.9-16.42 1.07-28.93 14.44-27.93 29.8z" fill="#ccc"></path><path d="M1382.85 1319.02c-29.43 7.07-29.42 7.13-59.52 3.9-5.26-5.24-2.13-11.7 2.1-14.06 1.76-.93 12.98 2.35 26.96 1.43 13.97-.86 24.72-5.64 26.58-4.95 4.5 1.7 8.46 7.78 3.87 13.67z" fill="#666"></path><path d="M1382.76 1317.64c-29.43 7.07-29.42 7.14-59.52 3.9-5.26-5.23-2.13-11.7 2.1-14.06 1.76-.93 12.98 2.35 26.96 1.44 13.98-.92 24.73-5.64 26.6-4.95 4.5 1.72 8.45 7.8 3.86 13.67z" fill="#ccc"></path><path d="M1383.75 1302.15l-6.44.42-1.66-25.47c4.32-2.1 4.32-2.1 6.44-.43l1.67 25.48zm-57.08 3.75l-6.44.4-1.67-25.46c1.88-1.95 1.88-1.95 6.44-.43l1.67 25.5z" fill="#666"></path></g><g stroke="#666"><path d="M1279.47 1277.9l-4.53-2.86 7.34-10.37c2-2.94 6.6 0 4.6 2.88l-7.4 10.36zm-29.77-1.94l4.88-2.25-5.93-11.23c-1.6-3.18-6.54-.87-4.93 2.25l6 11.24z" fill="#666"></path><path d="M1233.92 1288.9c-1 15.37 11.5 28.73 27.93 29.8 16.43 1.1 30.58-10.53 31.6-25.9 1-15.35-11.52-28.7-27.95-29.8-16.42-1.07-30.58 10.55-31.58 25.9z" fill="#ccc"></path><path d="M1291.47 1322.9c-30.1 3.18-30.1 3.24-59.53-3.9-4.53-5.87-.58-11.88 3.94-13.66 1.86-.7 12.55 4.03 26.52 4.94 13.98.98 25.26-2.36 27-1.43 4.26 2.3 7.4 8.83 2.07 14.06z" fill="#666"></path><path d="M1291.56 1321.54c-30.1 3.17-30.1 3.23-59.53-3.9-4.53-5.88-.58-11.9 3.94-13.67 1.86-.7 12.55 4.02 26.52 4.94 13.97.92 25.25-2.35 27-1.42 4.25 2.28 7.38 8.82 2.06 14.06z" fill="#ccc"></path><path d="M1294.56 1306.3l-6.44-.42 1.67-25.47c4.55-1.5 4.55-1.5 6.43.43l-1.67 25.48zm-57.08-3.74l-6.44-.42 1.67-25.48c2.13-1.68 2.13-1.68 6.45.43l-1.67 25.46z" fill="#666"></path></g><g stroke="#666"><path d="M1194.64 1266.58l-4.12-3.43 8.63-9.32c2.37-2.66 6.55.85 4.2 3.45l-8.7 9.3zm-29.24-5.81l5.1-1.6-4.4-11.92c-1.17-3.36-6.37-1.7-5.2 1.6l4.5 11.92z" fill="#666"></path><path d="M1148.04 1271.54c-3 15.1 7.66 30 23.8 33.2 16.15 3.2 31.7-6.46 34.7-21.56 3-15.1-7.66-29.98-23.8-33.2-16.15-3.2-31.7 6.47-34.7 21.56z" fill="#ccc"></path><path d="M1200.66 1312.77c-30.26-.8-30.27-.73-58.5-11.64-3.73-6.42.97-11.87 5.68-13.04 1.93-.45 11.9 5.62 25.65 8.35 13.72 2.8 25.34.96 26.96 2.1 3.9 2.83 6.16 9.72.2 14.22z" fill="#666"></path><path d="M1200.93 1311.42c-30.26-.8-30.27-.73-58.5-11.64-3.73-6.42.97-11.87 5.68-13.04 1.94-.44 11.92 5.63 25.66 8.36 13.74 2.73 25.35.96 26.96 2.1 3.92 2.83 6.17 9.72.2 14.22z" fill="#ccc"></path><path d="M1205.9 1296.7l-6.34-1.25 4.98-25.05c4.73-.9 4.73-.9 6.33 1.26l-4.98 25.05zm-56.1-11.15l-6.34-1.26 4.98-25.05c2.32-1.4 2.32-1.4 6.34 1.26l-5 25.05z" fill="#666"></path></g><g stroke="#666"><path d="M1126.9 1214.32l2.56-4.7 10.83 6.64c3.06 1.8.43 6.6-2.57 4.78l-10.83-6.72zm0-29.82l2.56 4.7 10.83-6.64c3.06-1.8.43-6.58-2.57-4.77l-10.83 6.7z" fill="#666"></path><path d="M1112.94 1169.6c-15.4 0-27.9 13.35-27.9 29.8 0 16.47 12.5 29.84 27.9 29.84 15.4 0 27.9-13.37 27.9-29.83 0-16.45-12.5-29.8-27.9-29.8z" fill="#ccc"></path><path d="M1082.78 1229.24c-5.13-29.83-5.2-29.83 0-59.65 5.57-4.92 11.83-1.37 13.9 3.02.8 1.8-3.2 12.78-3.2 26.8-.06 14 4 25.04 3.2 26.85-2 4.4-8.33 7.94-13.9 2.97z" fill="#666"></path><path d="M1084.16 1229.24c-5.13-29.83-5.2-29.83 0-59.65 5.57-4.92 11.82-1.37 13.9 3.02.8 1.8-3.2 12.78-3.2 26.8 0 14 4 25.04 3.2 26.85-2 4.4-8.33 7.94-13.9 2.97z" fill="#ccc"></path><path d="M1099.55 1231.24v-6.46h25.53c1.82 4.46 1.82 4.46 0 6.46h-25.53zm0-57.2v-6.45h25.53c1.82 2 1.82 2 0 6.44h-25.53z" fill="#666"></path></g><g stroke="#666"><path d="M1165.5 1144.16l5.14 1.6-4.4 11.9c-1.2 3.37-6.4 1.73-5.2-1.57l4.47-11.94zm29.27-5.82l-4.13 3.44 8.64 9.32c2.37 2.65 6.54-.86 4.18-3.45l-8.7-9.3z" fill="#666"></path><path d="M1206.67 1121.75c-3-15.1-18.55-24.77-34.7-21.56-16.14 3.2-26.8 18.08-23.8 33.18 3 15.1 18.55 24.77 34.7 21.56 16.14-3.2 26.8-18.1 23.8-33.2z" fill="#ccc"></path><path d="M1142.28 1103.8c28.25-10.85 28.24-10.9 58.5-11.64 5.9 4.5 3.64 11.34-.26 14.22-1.6 1.15-13.16-.64-26.9 2.1-13.75 2.67-23.8 8.8-25.72 8.37-4.7-1.1-9.4-6.62-5.62-13.05z" fill="#666"></path><path d="M1142.55 1105.15c28.25-10.85 28.24-10.9 58.5-11.64 5.9 4.52 3.64 11.35-.26 14.23-1.63 1.15-13.17-.64-26.9 2.1-13.75 2.73-23.8 8.8-25.73 8.37-4.7-1.1-9.4-6.62-5.62-13.05z" fill="#ccc"></path><path d="M1143.6 1120.64l6.32-1.26 4.98 25.04c-4 2.65-4 2.65-6.33 1.26l-4.98-25.04zm56.1-11.16l6.32-1.26 4.98 25.04c-1.6 2.17-1.6 2.17-6.33 1.26l-4.98-25.04z" fill="#666"></path></g><g stroke="#666"><path d="M1419.8 1138.37l4.12 3.43-8.63 9.32c-2.38 2.66-6.55-.85-4.2-3.44l8.7-9.3zm29.26 5.83l-5.13 1.58 4.4 11.92c1.2 3.36 6.4 1.7 5.2-1.6l-4.47-11.9z" fill="#666"></path><path d="M1466.4 1133.4c3-15.1-7.66-29.97-23.8-33.18-16.15-3.22-31.7 6.45-34.7 21.55-3 15.1 7.66 29.98 23.8 33.2 16.15 3.2 31.7-6.46 34.7-21.56z" fill="#ccc"></path><path d="M1413.78 1092.2c30.26.77 30.27.7 58.5 11.62 3.73 6.42-.97 11.87-5.68 13.04-1.93.44-11.9-5.63-25.65-8.36-13.73-2.8-25.35-.96-26.96-2.1-3.93-2.83-6.18-9.72-.22-14.2z" fill="#666"></path><path d="M1413.52 1093.54c30.25.78 30.26.72 58.5 11.63 3.73 6.42-.98 11.87-5.7 13.04-1.92.45-11.9-5.62-25.64-8.35-13.74-2.73-25.35-.96-26.96-2.1-3.92-2.83-6.17-9.72-.2-14.2z" fill="#ccc"></path><path d="M1408.55 1108.25l6.33 1.26-4.98 25.05c-4.72.9-4.72.9-6.33-1.26l4.98-25.05zm56.1 11.15l6.33 1.26-4.98 25.05c-2.32 1.4-2.32 1.4-6.33-1.25l4.98-25.05z" fill="#666"></path></g><g stroke="#666"><path d="M1249.36 1128.98l4.87 2.26-5.93 11.23c-1.6 3.18-6.54.87-4.93-2.24l6-11.25zm29.76-1.95l-4.53 2.87 7.33 10.37c2 2.94 6.6 0 4.6-2.87l-7.4-10.37z" fill="#666"></path><path d="M1293.1 1112.13c-1.02-15.36-15.17-26.97-31.6-25.9-16.42 1.08-28.94 14.44-27.93 29.8 1 15.37 15.16 26.98 31.58 25.9 16.43-1.07 28.95-14.44 27.94-29.8z" fill="#ccc"></path><path d="M1231.6 1085.94c29.42-7.08 29.42-7.14 59.52-3.9 5.26 5.23 2.12 11.7-2.12 14.06-1.75.93-12.97-2.35-26.94-1.44-14 .86-24.74 5.64-26.6 4.94-4.5-1.7-8.46-7.78-3.87-13.66z" fill="#666"></path><path d="M1231.68 1087.3c29.43-7.06 29.43-7.12 59.53-3.9 5.27 5.24 2.13 11.72-2.1 14.07-1.76.93-12.98-2.35-26.95-1.43-13.98.9-24.74 5.63-26.6 4.94-4.5-1.7-8.46-7.8-3.87-13.67z" fill="#ccc"></path><path d="M1230.7 1102.8l6.44-.42 1.67 25.48c-4.32 2.1-4.32 2.1-6.44.42l-1.67-25.48zm57.07-3.74l6.44-.42 1.68 25.48c-1.88 1.94-1.88 1.94-6.44.42l-1.67-25.48z" fill="#666"></path></g><path d="M1483.58 1185.98l-2.13 3.88-3.82-2.33c-2.5-1.48-.43-5.42 2.13-3.87l3.82 2.32zm0 27.05l-2.13-3.87-3.82 2.32c-2.5 1.5-.43 5.43 2.13 3.88l3.82-2.33z" fill="#666"></path><path d="M1514.56 1230.27c-5.64 0-10.27-13.82-10.27-30.8 0-17.04 4.62-30.8 10.26-30.8 5.7 0 10.26 13.76 10.26 30.8 0 16.98-4.57 30.8-10.26 30.8z" stroke="#666" fill="#aaa"></path><path d="M1479.5 1185.98v27l33.55-1.5v-23.95zm44.38 36.87c-4.94 0-8.9-10.46-8.9-23.37 0-12.9 3.96-23.37 8.9-23.37s8.9 10.47 8.9 23.38c0 12.9-3.96 23.37-8.9 23.37z" stroke="#666" fill="#aaa"></path><path d="M1527.57 1222.85c-4.94 0-8.88-10.46-8.88-23.37 0-12.9 3.93-23.37 8.87-23.37 4.95 0 8.9 10.47 8.9 23.38 0 12.9-3.95 23.37-8.9 23.37z" stroke="#666" fill="#aaa"></path><path d="M1524.26 1167.65c5.57 2.07 9.32 13.5 2.75 13.04-3.43-.27-8.06 2.2-10.32-.53-2.63-3.16-3.75-11.8.88-12.46 4.44-.63 5.38-.5 6.7-.05zm0 63.72c5.57-2.07 9.32-13.5 2.75-13.04-3.43.26-8.06-2.2-10.32.5-2.63 3.1-3.75 11.83.88 12.47 4.44.58 5.38.52 6.7.07z" stroke="#666" fill="#aaa"></path><path d="M1537.27 1175.53c2.44 23.95 2.38 23.95 0 47.9 0 0-.3 1.8-2.3 2.4-1.95.57-5.4 0-8.84-2.4-3.63-23.95-3.56-23.95 0-47.9 3.38-2.33 6.9-2.65 8.83-2.33 2 .4 2.3 2.33 2.3 2.33zm-24.53 2.9l-.12 9.1-32.73-1.55s-2.83-9.74 0-12.78c3.93-4.13 11.2-.84 16.7 0 5.56.9 16.14 5.23 16.14 5.23zm0 42.03l-.12-8.98-32.73 1.5s-2.83 9.74 0 12.77c3.93 4.13 11.2.84 16.7 0 5.56-.9 16.14-5.3 16.14-5.3z" stroke="#666" fill="#aaa"></path><path d="M1513.5 1169.33v6.2h-22.72c-5.57 0-5.45-5.3 0-6.2h22.7zm0 60.23v-6.13h-22.72c-5.57 0-5.45 5.3 0 6.13h22.7z" fill="#2b2b2b"></path><g stroke="#666"><path d="M1334.97 1127.04l4.54 2.87-7.34 10.38c-2 2.94-6.6 0-4.6-2.87l7.4-10.36zm29.76 1.96l-4.87 2.25 5.93 11.23c1.6 3.18 6.53.87 4.93-2.24l-6-11.25z" fill="#666"></path><path d="M1380.53 1116.04c1-15.36-11.5-28.72-27.94-29.8-16.44-1.08-30.6 10.54-31.6 25.9s11.5 28.73 27.94 29.8c16.43 1.08 30.58-10.54 31.6-25.9z" fill="#ccc"></path><path d="M1322.98 1082.04c30.1-3.17 30.1-3.23 59.52 3.9 4.53 5.88.58 11.9-3.94 13.67-1.85.7-12.54-4-26.52-4.93-13.98-.98-25.26 2.36-27 1.43-4.26-2.3-7.4-8.83-2.06-14.06z" fill="#666"></path><path d="M1322.9 1083.42c30.08-3.17 30.1-3.24 59.5 3.9 4.54 5.88.6 11.9-3.93 13.66-1.85.7-12.54-4.02-26.52-4.93-13.98-.92-25.26 2.35-27 1.42-4.26-2.28-7.4-8.82-2.06-14.05z" fill="#ccc"></path><path d="M1319.88 1098.65l6.45.42-1.67 25.48c-4.57 1.52-4.57 1.52-6.45-.42l1.68-25.48zm57.08 3.75l6.44.4-1.67 25.5c-2.12 1.67-2.12 1.67-6.44-.43l1.66-25.48z" fill="#666"></path></g><path d="M1483.08 1130.23c16.15 54.4 16.15 86.95 0 141.54-108.9 26.03-242.56 26.03-351.07 0-16.14-54.6-16.14-87.13 0-141.54 108.52-26.2 242.2-26.2 351.08 0z" stroke="#666" fill="#ddd"></path><g fill="none"><path d="M901.43 1123.6l90 .14m-90.15 89.85c49.7.07 90.07-40.16 90.15-89.86m-90.3 179.85l90 .14m-89.85-90.15c49.7.07 89.93 40.43 89.85 90.14" stroke="#666"></path><path d="M986.43 1123.73c2.76 0 5 2.25 5 5l-.3 170c0 2.77-2.24 5-5 5l-80-.14c-2.77 0-5-2.25-5-5l.3-170c0-2.78 2.24-5 5-5z"></path></g><path d="M1018.73 532.82c0-2.76 2.24-5 5-5h230c2.76 0 5 2.24 5 5v50c0 2.76-2.24 5-5 5h-230c-2.76 0-5-2.24-5-5z" fill="none"></path><use xlink:href="#k" transform="translate(1077.43 564.373)"></use><use xlink:href="#l" transform="translate(1141.566 564.373)"></use><path d="M1659.65 209.56l-6.25 6.25-6.25 6.26v430.17l6.25 6.25h6.25zm0 448.92h-6.25l-6.25 6.25v376.57l6.25 6.25h6.25zm0 389.07h-6.25l-6.25 6.25v324l6.25 6.26 6.25 6.25z" fill="#fff"></path><path d="M1659.65 209.56v448.92m-12.5-6.25V222.06m12.5 436.42v389.07m-12.5-6.25V664.73m12.5 382.82v342.76m-12.5-12.5v-324m12.5-6.25" stroke="#666" fill="none"></path><g><use xlink:href="#b" transform="rotate(90 447.593 1227.657)"></use></g><path d="M709.54 96.9c0-4.43 3.58-8 8-8h520.78c4.42 0 8 3.57 8 8v26.14c0 4.4-3.58 8-8 8H717.54c-4.42 0-8-3.6-8-8z" fill="none"></path><g><use xlink:href="#m" transform="translate(876.677 116.973)"></use><use xlink:href="#n" transform="translate(958.112 116.973)"></use><use xlink:href="#o" transform="translate(1030.733 116.973)"></use></g><path d="M717.05 129.66h521.76m-521.73 0h-4.03m525.73 0h4.03" stroke="#b2b2b2" stroke-width="2" fill="none"></path><path d="M709.1 137.96c0-4.42 3.57-8 8-8h521.37c4.42 0 8 3.58 8 8v4c0 4.42-3.58 8-8 8H717.1c-4.43 0-8-3.58-8-8z" fill="none"></path><g><use xlink:href="#p" transform="translate(901.515 148.88)"></use><use xlink:href="#q" transform="translate(955.774 148.88)"></use><use xlink:href="#r" transform="translate(968.224 148.88)"></use><use xlink:href="#s" transform="translate(1002.938 148.88)"></use><use xlink:href="#t" transform="translate(1027.284 148.88)"></use></g><defs><path d="M155-56V0h-30v-56H8v-25l114-167h33v167h35v25h-35zm-30-156c-27 46-58 90-88 131h88v-131" id="u"></path><path d="M54-142c48-35 137-8 131 61C196 18 31 33 14-55l32-4c7 23 22 37 52 37 35-1 51-22 54-58 4-55-73-65-99-34H22l8-134h141v27H59" id="v"></path><path d="M47-170H22l-4-78h33" id="w"></path><path d="M126-127c33 6 58 20 58 59 0 88-139 92-164 29-3-8-5-16-6-25l32-3c6 27 21 44 54 44 32 0 52-15 52-46 0-38-36-46-79-43v-28c39 1 72-4 72-42 0-27-17-43-46-43-28 0-47 15-49 41l-32-3c6-42 35-63 81-64 48-1 79 21 79 65 0 36-21 52-52 59" id="x"></path><path d="M109-170H84l-4-78h32zm-65 0H19l-4-78h33" id="y"></path><g id="a"><use transform="scale(.05)" xlink:href="#u"></use><use transform="translate(10) scale(.05)" xlink:href="#v"></use><use transform="translate(20) scale(.05)" xlink:href="#w"></use><use transform="translate(23.4) scale(.05)" xlink:href="#x"></use><use transform="translate(33.4) scale(.05)" xlink:href="#y"></use></g><path d="M99-251c64 0 84 50 84 122C183-37 130 33 47-8c-14-7-20-23-25-40l30-5c6 39 69 39 84 7 9-19 16-44 16-74-10 22-31 35-62 35-49 0-73-33-73-83 0-54 28-83 82-83zm-1 141c31-1 51-18 51-49 0-36-14-67-51-67-34 0-49 23-49 58 0 34 15 58 49 58" id="z"></path><g id="b"><use transform="scale(.05)" xlink:href="#x"></use><use transform="translate(10) scale(.05)" xlink:href="#z"></use><use transform="translate(20) scale(.05)" xlink:href="#w"></use><use transform="translate(23.4) scale(.05)" xlink:href="#u"></use><use transform="translate(33.4) scale(.05)" xlink:href="#y"></use></g><path d="M27 0v-27h64v-190l-56 39v-29l58-41h29v221h61V0H27" id="A"></path><g id="c"><use transform="scale(.05)" xlink:href="#A"></use><use transform="translate(10) scale(.05)" xlink:href="#u"></use><use transform="translate(20) scale(.05)" xlink:href="#w"></use><use transform="translate(23.4) scale(.05)" xlink:href="#u"></use><use transform="translate(33.4) scale(.05)" xlink:href="#y"></use></g><g id="d"><use transform="scale(.05)" xlink:href="#A"></use><use transform="translate(8.65) scale(.05)" xlink:href="#A"></use><use transform="translate(18.65) scale(.05)" xlink:href="#w"></use><use transform="translate(22.05) scale(.05)" xlink:href="#z"></use><use transform="translate(32.05) scale(.05)" xlink:href="#y"></use></g><path d="M101-251c82-7 93 87 43 132L82-64C71-53 59-42 53-27h129V0H18c2-99 128-94 128-182 0-28-16-43-45-43s-46 15-49 41l-32-3c6-41 34-60 81-64" id="B"></path><g id="e"><use transform="scale(.05)" xlink:href="#B"></use><use transform="translate(10) scale(.05)" xlink:href="#u"></use><use transform="translate(20) scale(.05)" xlink:href="#w"></use><use transform="translate(23.4) scale(.05)" xlink:href="#A"></use><use transform="translate(33.4) scale(.05)" xlink:href="#y"></use></g><g id="f"><use transform="scale(.05)" xlink:href="#u"></use><use transform="translate(10) scale(.05)" xlink:href="#v"></use><use transform="translate(20) scale(.05)" xlink:href="#w"></use><use transform="translate(23.4) scale(.05)" xlink:href="#B"></use><use transform="translate(33.4) scale(.05)" xlink:href="#y"></use></g><g id="g"><use transform="scale(.05)" xlink:href="#B"></use><use transform="translate(10) scale(.05)" xlink:href="#v"></use><use transform="translate(20) scale(.05)" xlink:href="#w"></use><use transform="translate(23.4) scale(.05)" xlink:href="#v"></use><use transform="translate(33.4) scale(.05)" xlink:href="#y"></use></g><path fill="#666" d="M27 0v-27h64v-190l-56 39v-29l58-41h29v221h61V0H27" id="C"></path><path fill="#666" d="M47-170H22l-4-78h33" id="D"></path><path fill="#666" d="M99-251c64 0 84 50 84 122C183-37 130 33 47-8c-14-7-20-23-25-40l30-5c6 39 69 39 84 7 9-19 16-44 16-74-10 22-31 35-62 35-49 0-73-33-73-83 0-54 28-83 82-83zm-1 141c31-1 51-18 51-49 0-36-14-67-51-67-34 0-49 23-49 58 0 34 15 58 49 58" id="E"></path><path fill="#666" d="M109-170H84l-4-78h32zm-65 0H19l-4-78h33" id="F"></path><g id="h"><use transform="scale(.05)" xlink:href="#C"></use><use transform="translate(8.65) scale(.05)" xlink:href="#C"></use><use transform="translate(18.65) scale(.05)" xlink:href="#D"></use><use transform="translate(22.05) scale(.05)" xlink:href="#E"></use><use transform="translate(32.05) scale(.05)" xlink:href="#F"></use></g><g id="i"><use transform="scale(.05)" xlink:href="#B"></use><use transform="translate(10) scale(.05)" xlink:href="#v"></use><use transform="translate(20) scale(.05)" xlink:href="#w"></use><use transform="translate(23.4) scale(.05)" xlink:href="#A"></use><use transform="translate(33.4) scale(.05)" xlink:href="#y"></use></g><path d="M101-251c68 0 85 55 85 127S166 4 100 4C33 4 14-52 14-124c0-73 17-127 87-127zm-1 229c47 0 54-49 54-102s-4-102-53-102c-51 0-55 48-55 102 0 53 5 102 54 102" id="G"></path><g id="j"><use transform="scale(.05)" xlink:href="#A"></use><use transform="translate(10) scale(.05)" xlink:href="#G"></use><use transform="translate(20) scale(.05)" xlink:href="#w"></use><use transform="translate(23.4) scale(.05)" xlink:href="#A"></use><use transform="translate(33.4) scale(.05)" xlink:href="#G"></use><use transform="translate(43.4) scale(.05)" xlink:href="#y"></use></g><path fill="#666" d="M160-131c35 5 61 23 61 61C221 17 115-2 30 0v-248c76 3 177-17 177 60 0 33-19 50-47 57zm-97-11c50-1 110 9 110-42 0-47-63-36-110-37v79zm0 115c55-2 124 14 124-45 0-56-70-42-124-44v89" id="H"></path><path fill="#666" d="M114-163C36-179 61-72 57 0H25l-1-190h30c1 12-1 29 2 39 6-27 23-49 58-41v29" id="I"></path><path fill="#666" d="M100-194c63 0 86 42 84 106H49c0 40 14 67 53 68 26 1 43-12 49-29l28 8c-11 28-37 45-77 45C44 4 14-33 15-96c1-61 26-98 85-98zm52 81c6-60-76-77-97-28-3 7-6 17-6 28h103" id="J"></path><path fill="#666" d="M141-36C126-15 110 5 73 4 37 3 15-17 15-53c-1-64 63-63 125-63 3-35-9-54-41-54-24 1-41 7-42 31l-33-3c5-37 33-52 76-52 45 0 72 20 72 64v82c-1 20 7 32 28 27v20c-31 9-61-2-59-35zM48-53c0 20 12 33 32 33 41-3 63-29 60-74-43 2-92-5-92 41" id="K"></path><path fill="#666" d="M143 0L79-87 56-68V0H24v-261h32v163l83-92h37l-77 82L181 0h-38" id="L"></path><g id="k"><use transform="rotate(.413) scale(.06173)" xlink:href="#H"></use><use transform="matrix(.06173 0 0 .06173 14.815 0)" xlink:href="#I"></use><use transform="matrix(.06173 0 0 .06173 22.16 0)" xlink:href="#J"></use><use transform="matrix(.06173 0 0 .06173 34.506 0)" xlink:href="#K"></use><use transform="matrix(.06173 0 0 .06173 46.852 0)" xlink:href="#L"></use></g><path fill="#666" d="M233-177c-1 41-23 64-60 70L243 0h-38l-65-103H63V0H30v-248c88 3 205-21 203 71zM63-129c60-2 137 13 137-47 0-61-80-42-137-45v92" id="M"></path><path fill="#666" d="M100-194c62-1 85 37 85 99 1 63-27 99-86 99S16-35 15-95c0-66 28-99 85-99zM99-20c44 1 53-31 53-75 0-43-8-75-51-75s-53 32-53 75 10 74 51 75" id="N"></path><path fill="#666" d="M210-169c-67 3-38 105-44 169h-31v-121c0-29-5-50-35-48C34-165 62-65 56 0H25l-1-190h30c1 10-1 24 2 32 10-44 99-50 107 0 11-21 27-35 58-36 85-2 47 119 55 194h-31v-121c0-29-5-49-35-48" id="O"></path><g id="l"><use transform="rotate(.413) scale(.06173)" xlink:href="#M"></use><use transform="matrix(.06173 0 0 .06173 15.988 0)" xlink:href="#N"></use><use transform="matrix(.06173 0 0 .06173 28.333 0)" xlink:href="#N"></use><use transform="matrix(.06173 0 0 .06173 40.679 0)" xlink:href="#O"></use></g><path fill="#b2b2b2" d="M140-251c80 0 125 45 125 126S219 4 139 4C58 4 15-44 15-125s44-126 125-126zm-1 214c52 0 73-35 73-88 0-50-21-86-72-86-52 0-73 35-73 86s22 88 72 88" id="P"></path><path fill="#b2b2b2" d="M121-226c-27-7-43 5-38 36h38v33H83V0H34v-157H6v-33h28c-9-59 32-81 87-68v32" id="Q"></path><path fill="#b2b2b2" d="M25-224v-37h50v37H25zM25 0v-190h50V0H25" id="R"></path><path fill="#b2b2b2" d="M190-63c-7 42-38 67-86 67-59 0-84-38-90-98-12-110 154-137 174-36l-49 2c-2-19-15-32-35-32-30 0-35 28-38 64-6 74 65 87 74 30" id="S"></path><path fill="#b2b2b2" d="M185-48c-13 30-37 53-82 52C43 2 14-33 14-96s30-98 90-98c62 0 83 45 84 108H66c0 31 8 55 39 56 18 0 30-7 34-22zm-45-69c5-46-57-63-70-21-2 6-4 13-4 21h74" id="T"></path><g id="m"><use transform="rotate(.211) scale(.07284)" xlink:href="#P"></use><use transform="matrix(.07284 0 0 .07284 20.395 0)" xlink:href="#Q"></use><use transform="matrix(.07284 0 0 .07284 29.063 0)" xlink:href="#Q"></use><use transform="matrix(.07284 0 0 .07284 37.73 0)" xlink:href="#R"></use><use transform="matrix(.07284 0 0 .07284 45.015 0)" xlink:href="#S"></use><use transform="matrix(.07284 0 0 .07284 59.583 0)" xlink:href="#T"></use></g><path fill="#b2b2b2" d="M76-208v77h127v40H76V0H24v-248h183v40H76" id="U"></path><path fill="#b2b2b2" d="M25 0v-261h50V0H25" id="V"></path><path fill="#b2b2b2" d="M110-194c64 0 96 36 96 99 0 64-35 99-97 99-61 0-95-36-95-99 0-62 34-99 96-99zm-1 164c35 0 45-28 45-65 0-40-10-65-43-65-34 0-45 26-45 65 0 36 10 65 43 65" id="W"></path><path fill="#b2b2b2" d="M135-150c-39-12-60 13-60 57V0H25l-1-190h47c2 13-1 29 3 40 6-28 27-53 61-41v41" id="X"></path><g id="n"><use transform="rotate(.211) scale(.07284)" xlink:href="#U"></use><use transform="matrix(.07284 0 0 .07284 15.952 0)" xlink:href="#V"></use><use transform="matrix(.07284 0 0 .07284 23.236 0)" xlink:href="#W"></use><use transform="matrix(.07284 0 0 .07284 39.188 0)" xlink:href="#W"></use><use transform="matrix(.07284 0 0 .07284 55.14 0)" xlink:href="#X"></use></g><path fill="#b2b2b2" d="M24-248c93 1 206-16 204 79-1 75-69 88-152 82V0H24v-248zm52 121c47 0 100 7 100-41 0-47-54-39-100-39v80" id="Y"></path><path fill="#b2b2b2" d="M133-34C117-15 103 5 69 4 32 3 11-16 11-54c-1-60 55-63 116-61 1-26-3-47-28-47-18 1-26 9-28 27l-52-2c7-38 36-58 82-57s74 22 75 68l1 82c-1 14 12 18 25 15v27c-30 8-71 5-69-32zm-48 3c29 0 43-24 42-57-32 0-66-3-65 30 0 17 8 27 23 27" id="Z"></path><path fill="#b2b2b2" d="M135-194c87-1 58 113 63 194h-50c-7-57 23-157-34-157-59 0-34 97-39 157H25l-1-190h47c2 12-1 28 3 38 12-26 28-41 61-42" id="aa"></path><g id="o"><use transform="rotate(.211) scale(.07284)" xlink:href="#Y"></use><use transform="matrix(.07284 0 0 .07284 17.481 0)" xlink:href="#V"></use><use transform="matrix(.07284 0 0 .07284 24.765 0)" xlink:href="#Z"></use><use transform="matrix(.07284 0 0 .07284 39.333 0)" xlink:href="#aa"></use></g><path fill="#b2b2b2" d="M63-220v92h138v28H63V0H30v-248h175v28H63" id="ab"></path><path fill="#b2b2b2" d="M100-194c63 0 86 42 84 106H49c0 40 14 67 53 68 26 1 43-12 49-29l28 8c-11 28-37 45-77 45C44 4 14-33 15-96c1-61 26-98 85-98zm52 81c6-60-76-77-97-28-3 7-6 17-6 28h103" id="ac"></path><path fill="#b2b2b2" d="M24 0v-261h32V0H24" id="ad"></path><path fill="#b2b2b2" d="M24-231v-30h32v30H24zM24 0v-190h32V0H24" id="ae"></path><path fill="#b2b2b2" d="M115-194c55 1 70 41 70 98S169 2 115 4C84 4 66-9 55-30l1 105H24l-1-265h31l2 30c10-21 28-34 59-34zm-8 174c40 0 45-34 45-75s-6-73-45-74c-42 0-51 32-51 76 0 43 10 73 51 73" id="af"></path><g id="p"><use transform="rotate(.211) scale(.04249)" xlink:href="#ab"></use><use transform="matrix(.04249 0 0 .04249 9.305 0)" xlink:href="#ac"></use><use transform="matrix(.04249 0 0 .04249 17.803 0)" xlink:href="#ad"></use><use transform="matrix(.04249 0 0 .04249 21.16 0)" xlink:href="#ae"></use><use transform="matrix(.04249 0 0 .04249 24.517 0)" xlink:href="#af"></use><use transform="matrix(.04249 0 0 .04249 33.015 0)" xlink:href="#ac"></use></g><path fill="#b2b2b2" d="M32 76v-337h29V76H32" id="ag"></path><use transform="rotate(.211) scale(.04249)" xlink:href="#ag" id="q"></use><path fill="#b2b2b2" d="M205 0l-28-72H64L36 0H1l101-248h38L239 0h-34zm-38-99l-47-123c-12 45-31 82-46 123h93" id="ah"></path><path fill="#b2b2b2" d="M114-163C36-179 61-72 57 0H25l-1-190h30c1 12-1 29 2 39 6-27 23-49 58-41v29" id="ai"></path><g id="r"><use transform="rotate(.211) scale(.04249)" xlink:href="#ah"></use><use transform="matrix(.04249 0 0 .04249 10.198 0)" xlink:href="#af"></use><use transform="matrix(.04249 0 0 .04249 18.695 0)" xlink:href="#ai"></use><use transform="matrix(.04249 0 0 .04249 23.752 0)" xlink:href="#ae"></use><use transform="matrix(.04249 0 0 .04249 27.108 0)" xlink:href="#ad"></use></g><path fill="#b2b2b2" d="M27 0v-27h64v-190l-56 39v-29l58-41h29v221h61V0H27" id="aj"></path><path fill="#b2b2b2" d="M68-38c1 34 0 65-14 84H32c9-13 17-26 17-46H33v-38h35" id="ak"></path><g id="s"><use transform="rotate(.211) scale(.04249)" xlink:href="#aj"></use><use transform="matrix(.04249 0 0 .04249 7.35 0)" xlink:href="#aj"></use><use transform="matrix(.04249 0 0 .04249 15.849 0)" xlink:href="#ak"></use></g><path fill="#b2b2b2" d="M101-251c82-7 93 87 43 132L82-64C71-53 59-42 53-27h129V0H18c2-99 128-94 128-182 0-28-16-43-45-43s-46 15-49 41l-32-3c6-41 34-60 81-64" id="al"></path><path fill="#b2b2b2" d="M101-251c68 0 85 55 85 127S166 4 100 4C33 4 14-52 14-124c0-73 17-127 87-127zm-1 229c47 0 54-49 54-102s-4-102-53-102c-51 0-55 48-55 102 0 53 5 102 54 102" id="am"></path><path fill="#b2b2b2" d="M99-251c64 0 84 50 84 122C183-37 130 33 47-8c-14-7-20-23-25-40l30-5c6 39 69 39 84 7 9-19 16-44 16-74-10 22-31 35-62 35-49 0-73-33-73-83 0-54 28-83 82-83zm-1 141c31-1 51-18 51-49 0-36-14-67-51-67-34 0-49 23-49 58 0 34 15 58 49 58" id="an"></path><g id="t"><use transform="rotate(.211) scale(.04249)" xlink:href="#al"></use><use transform="matrix(.04249 0 0 .04249 8.498 0)" xlink:href="#am"></use><use transform="matrix(.04249 0 0 .04249 16.996 0)" xlink:href="#aj"></use><use transform="matrix(.04249 0 0 .04249 25.494 0)" xlink:href="#an"></use></g></defs></g></svg>